<svg xmlns="http://www.w3.org/2000/svg" width="124.174" height="121.205" viewBox="0 0 124.174 121.205"><defs><style>.a{fill:#fff;}</style></defs><path class="a" d="M0,55.187a2.292,2.292,0,0,1,2.466-1.364c4,.022,7.994.008,11.991.008h1.12c-3.318-15.5,1.072-27.959,15.072-35.789,10.644-5.953,21.717-5.211,31.673,1.864C74,28.2,77.455,39.842,74.266,53.77c.335.018.733.058,1.13.058q10.308.006,20.615.007a6.39,6.39,0,0,1,1.359.094,1.739,1.739,0,0,1,.085,3.363,5.217,5.217,0,0,1-1.352.133q-46.7.009-93.4.016a2.833,2.833,0,0,1-2.7-1.2ZM21.676,42.969c-.074,2.768.431,3.6,1.678,3.629s1.8-.8,1.889-2.61a22.833,22.833,0,0,1,2.11-8.721c.342-.728.781-1.41,1.119-2.139a1.737,1.737,0,0,0-1.149-2.56,1.942,1.942,0,0,0-2.143,1.152,25.2,25.2,0,0,0-3.5,11.249m22.9-21.461c-4.39.184-7.989,1.848-11.432,3.921A1.772,1.772,0,0,0,35.1,28.385a22.163,22.163,0,0,1,10.044-3.348,1.707,1.707,0,0,0,1.333-2.588,1.864,1.864,0,0,0-1.9-.94m63.158,62.717c-.074-.263-.134-.53-.223-.788-.72-2.072-1.143-4.318-2.226-6.179-3.51-6.031-8.912-9.037-15.9-9.043q-32.668-.027-65.335-.007c-.21,0-.421-.005-.631.008a1.777,1.777,0,0,0-.127,3.552,9.3,9.3,0,0,0,1.156.026q32.51,0,65.019.008c9.081.009,15.8,7.569,14.479,16.381A13.553,13.553,0,0,1,94.01,99.81c-5.609,1.738-10.605.334-14.709-3.895A14.2,14.2,0,0,1,75.4,86.3c-.06-1.306-.809-1.964-1.9-1.9a1.773,1.773,0,0,0-1.638,2.144,29.091,29.091,0,0,0,.716,4.552,17.866,17.866,0,0,0,33.241,2.984,47.494,47.494,0,0,0,1.923-6.069Zm0-51.764a2.337,2.337,0,0,1-.191-.466A12.373,12.373,0,0,0,97.86,21.824,12.159,12.159,0,0,0,84.99,26.75,11.588,11.588,0,0,0,82.635,33.7c-.024,1.248.544,2.013,1.561,2.121,1.052.112,1.792-.559,2-1.824.029-.173.043-.348.058-.522a8.814,8.814,0,0,1,10.563-8.166,8.393,8.393,0,0,1,7,6.592,8.527,8.527,0,0,1-2.652,8.785,9.07,9.07,0,0,1-6.554,2.356c-4.453-.025-8.907-.018-13.36,0-1.436.006-2.223.7-2.2,1.838.019,1.1.775,1.743,2.168,1.744,4.839,0,9.681.08,14.516-.055a11.6,11.6,0,0,0,10.111-6.005,30.419,30.419,0,0,0,1.891-4.947ZM0,45.086c.347.742.721,1.49,1.684,1.5,2.522.02,5.045.04,7.566-.019a1.54,1.54,0,0,0,1.522-1.584A1.648,1.648,0,0,0,9.406,43.15a4.68,4.68,0,0,0-1.039-.108c-1.963-.01-3.926.019-5.888-.014A2.237,2.237,0,0,0,0,44.666ZM0,79.6a2.464,2.464,0,0,0,2.183,1.175c1.541-.022,3.082.017,4.623-.013,1.351-.027,2.144-.72,2.144-1.793S8.157,77.2,6.806,77.172c-1.4-.031-2.8.02-4.2-.018A2.714,2.714,0,0,0,0,78.334ZM107.737,55.187c-.827-1.319-3.251-1.947-4.483-1.025a2.222,2.222,0,0,0-.778,1.652,2.044,2.044,0,0,0,1.02,1.407,3.717,3.717,0,0,0,4.24-.982ZM34.023,77.163H15.508c-.316,0-.632-.013-.946.009-1.23.088-1.939.735-1.954,1.765-.016,1.078.708,1.742,2,1.821.35.022.7.008,1.052.008q17.831,0,35.662-.009a9.364,9.364,0,0,1,7.965,3.689,8.93,8.93,0,0,1-9.526,13.92,8.862,8.862,0,0,1-6.624-8.155c-.126-1.538-.787-2.289-1.954-2.222q-1.7.1-1.644,2.347A12.55,12.55,0,1,0,64.6,88.869,12.322,12.322,0,0,0,53.06,77.284c-6.34-.2-12.691-.046-19.037-.046v-.076m12.7-75.229a1.786,1.786,0,1,0-3.563-.038q-.056,3.457,0,6.915a1.787,1.787,0,1,0,3.561-.066c.027-1.117.006-2.235.006-3.353,0-1.153.023-2.306-.006-3.458M20.7,18.1q-2.4-2.492-4.882-4.9a1.782,1.782,0,1,0-2.534,2.5c.726.8,1.517,1.545,2.284,2.309A29.179,29.179,0,0,0,18.35,20.7a2.4,2.4,0,0,0,1.9.308c.5-.159.834-.876,1.283-1.4A7.435,7.435,0,0,0,20.7,18.1M76.1,12.783a1.687,1.687,0,0,0-2.091.462c-1.581,1.582-3.177,3.151-4.742,4.749a1.819,1.819,0,0,0-.2,2.7c.772.783,1.814.719,2.773-.221,1.547-1.517,3.087-3.042,4.592-4.6a10.36,10.36,0,0,0,1.008-1.57A6.569,6.569,0,0,0,76.1,12.783" transform="matrix(0.985, 0.174, -0.174, 0.985, 18.073, 0)"/></svg>