<svg xmlns="http://www.w3.org/2000/svg" width="108.082" height="103.165" viewBox="0 0 108.082 103.165">
  <g id="Chemical" transform="translate(0 -357.5)">
    <g id="组_3688" data-name="组 3688" transform="translate(0 357.5)">
      <path id="路径_25770" data-name="路径 25770" d="M116.215,202.549a11.326,11.326,0,0,1-8.009-19.335l54.659-54.659a1.68,1.68,0,0,1,2.375,2.375l-54.659,54.659a7.967,7.967,0,0,0,11.267,11.267L176.507,142.2a1.68,1.68,0,0,1,2.375,2.375l-54.659,54.659a11.252,11.252,0,0,1-8.009,3.317" transform="translate(-81.399 -99.384)" fill="#fff"/>
      <path id="路径_25771" data-name="路径 25771" d="M375.808,115.593a6.988,6.988,0,0,1-4.957-2.05l-3.055-3.055a1.68,1.68,0,1,1,2.375-2.375l3.055,3.055a3.65,3.65,0,0,0,5.162,0,3.672,3.672,0,0,0,1.08-2.6,3.608,3.608,0,0,0-1.058-2.585L363.64,91.212a3.666,3.666,0,0,0-5.184,5.184l3.055,3.055a1.68,1.68,0,1,1-2.375,2.375l-3.055-3.055a7.025,7.025,0,0,1,9.935-9.935l14.771,14.771a7.028,7.028,0,0,1-4.978,11.985" transform="translate(-274.746 -67.356)" fill="#fff"/>
      <path id="路径_25772" data-name="路径 25772" d="M178.5,310.081a1.68,1.68,0,0,1-1.188-2.867l25.533-25.533a1.68,1.68,0,0,1,2.375,2.375l-25.533,25.533a1.674,1.674,0,0,1-1.188.492" transform="translate(-137.219 -218.217)" fill="#fff"/>
      <path id="路径_25773" data-name="路径 25773" d="M312.565,261.994a1.68,1.68,0,0,1-1.188-2.867l.721-.721a1.68,1.68,0,0,1,2.375,2.375l-.721.721a1.674,1.674,0,0,1-1.188.492" transform="translate(-241.263 -200.155)" fill="#fff"/>
      <path id="路径_25774" data-name="路径 25774" d="M317.389,233.691H298.508a1.68,1.68,0,0,1,0-3.359h18.881a1.68,1.68,0,0,1,0,3.359" transform="translate(-230.354 -178.75)" fill="#fff"/>
      <path id="路径_25775" data-name="路径 25775" d="M85.236,136.007H74.089a1.68,1.68,0,0,1-1.455-.84l-5.574-9.654a1.679,1.679,0,0,1,0-1.68l5.574-9.654a1.68,1.68,0,0,1,1.455-.84H85.236a1.68,1.68,0,0,1,1.455.84l5.574,9.654a1.679,1.679,0,0,1,0,1.68l-5.574,9.654a1.68,1.68,0,0,1-1.455.84m-10.178-3.359h9.208l4.6-7.974-4.6-7.974H75.059l-4.6,7.974Z" transform="translate(-51.868 -87.958)" fill="#fff"/>
      <path id="路径_25776" data-name="路径 25776" d="M207.888,47.487H196.741a1.68,1.68,0,0,1-1.455-.84l-5.574-9.654a1.679,1.679,0,0,1,0-1.68l5.574-9.654a1.679,1.679,0,0,1,1.455-.84h11.147a1.679,1.679,0,0,1,1.455.84l5.574,9.654a1.679,1.679,0,0,1,0,1.68l-5.574,9.654a1.68,1.68,0,0,1-1.455.84m-10.177-3.359h9.208l4.6-7.974-4.6-7.974h-9.208l-4.6,7.974Z" transform="translate(-147.053 -19.262)" fill="#fff"/>
      <path id="路径_25777" data-name="路径 25777" d="M143.179,81.456a1.68,1.68,0,0,1-1.155-2.9l10.747-10.17a1.68,1.68,0,0,1,2.309,2.44L144.334,81a1.674,1.674,0,0,1-1.154.46" transform="translate(-109.811 -52.715)" fill="#fff"/>
      <path id="路径_25778" data-name="路径 25778" d="M266.725,8.917a1.68,1.68,0,0,1-1.155-2.9L271.444.459a1.68,1.68,0,1,1,2.309,2.44L267.88,8.458a1.674,1.674,0,0,1-1.154.46" transform="translate(-205.689 0)" fill="#fff"/>
      <path id="路径_25779" data-name="路径 25779" d="M66.886,81.456a1.677,1.677,0,0,1-1.343-.67L57.89,70.616a1.68,1.68,0,1,1,2.684-2.02l7.652,10.17a1.68,1.68,0,0,1-1.341,2.69" transform="translate(-44.664 -52.715)" fill="#fff"/>
      <path id="路径_25780" data-name="路径 25780" d="M59.231,213.085a1.68,1.68,0,0,1-1.341-2.69l7.652-10.17a1.68,1.68,0,1,1,2.684,2.02l-7.652,10.17a1.677,1.677,0,0,1-1.343.67" transform="translate(-44.663 -154.865)" fill="#fff"/>
      <path id="路径_25781" data-name="路径 25781" d="M154.267,215.112a1.675,1.675,0,0,1-1.243-.55l-11.087-12.2a1.68,1.68,0,1,1,2.486-2.259l11.087,12.2a1.679,1.679,0,0,1-1.242,2.809" transform="translate(-109.811 -154.865)" fill="#fff"/>
      <path id="路径_25782" data-name="路径 25782" d="M6.877,71.286H1.68a1.68,1.68,0,0,1,0-3.359h5.2a1.68,1.68,0,0,1,0,3.359" transform="translate(0 -52.715)" fill="#fff"/>
      <path id="路径_25783" data-name="路径 25783" d="M327.68,3.359h-5.2a1.68,1.68,0,0,1,0-3.359h5.2a1.68,1.68,0,1,1,0,3.359" transform="translate(-248.96)" fill="#fff"/>
      <path id="路径_25784" data-name="路径 25784" d="M14.568,36.317H1.68a1.68,1.68,0,1,1,0-3.359H14.568a1.68,1.68,0,1,1,0,3.359" transform="translate(0 -25.577)" fill="#fff"/>
      <path id="路径_25785" data-name="路径 25785" d="M11.752,248.328h-5.2a1.68,1.68,0,0,1,0-3.359h5.2a1.68,1.68,0,0,1,0,3.359" transform="translate(-3.783 -190.109)" fill="#fff"/>
      <path id="路径_25786" data-name="路径 25786" d="M387.116,404.495a1.857,1.857,0,1,1-1.827-1.887,1.857,1.857,0,0,1,1.827,1.887" transform="translate(-297.54 -312.445)" fill="#fff"/>
      <path id="路径_25787" data-name="路径 25787" d="M413.207,297.988h-.027a1.679,1.679,0,0,1-1.652-1.706l.017-1.1a1.68,1.68,0,0,1,3.359.054l-.017,1.1a1.68,1.68,0,0,1-1.679,1.653" transform="translate(-319.366 -227.797)" fill="#fff"/>
      <path id="路径_25788" data-name="路径 25788" d="M412.516,341.208h-.027a1.679,1.679,0,0,1-1.652-1.706l.017-1.1a1.68,1.68,0,1,1,3.359.054l-.017,1.1a1.68,1.68,0,0,1-1.679,1.653" transform="translate(-318.83 -261.337)" fill="#fff"/>
      <path id="路径_25789" data-name="路径 25789" d="M389.939,320.583h-.027l-1.1-.017a1.68,1.68,0,0,1,.054-3.359l1.1.017a1.68,1.68,0,0,1-.026,3.359" transform="translate(-300.458 -246.169)" fill="#fff"/>
      <path id="路径_25790" data-name="路径 25790" d="M433.16,321.273h-.027l-1.1-.017a1.68,1.68,0,1,1,.054-3.359l1.1.017a1.68,1.68,0,0,1-.026,3.359" transform="translate(-334 -246.704)" fill="#fff"/>
      <path id="路径_25791" data-name="路径 25791" d="M76.625,298.37H76.6a1.68,1.68,0,0,1-1.653-1.706l.017-1.1a1.68,1.68,0,1,1,3.359.054l-.017,1.1a1.68,1.68,0,0,1-1.679,1.653" transform="translate(-58.161 -228.093)" fill="#fff"/>
      <path id="路径_25792" data-name="路径 25792" d="M75.934,341.593h-.027a1.68,1.68,0,0,1-1.653-1.706l.018-1.1a1.68,1.68,0,1,1,3.359.054l-.017,1.1a1.68,1.68,0,0,1-1.679,1.653" transform="translate(-57.625 -261.636)" fill="#fff"/>
      <path id="路径_25793" data-name="路径 25793" d="M53.357,320.967H53.33l-1.1-.017a1.68,1.68,0,0,1,.054-3.359l1.1.017a1.68,1.68,0,0,1-.026,3.359" transform="translate(-39.253 -246.466)" fill="#fff"/>
      <path id="路径_25794" data-name="路径 25794" d="M96.578,321.657h-.027l-1.1-.017a1.68,1.68,0,0,1,.054-3.359l1.1.017a1.68,1.68,0,0,1-.026,3.359" transform="translate(-72.795 -247.002)" fill="#fff"/>
    </g>
  </g>
</svg>
