<svg xmlns="http://www.w3.org/2000/svg" width="118.025" height="116.084" viewBox="0 0 118.025 116.084"><defs><style>.a{fill:#fff;}</style></defs><path class="a" d="M102.24,2.384c-.282.66-.595,1.308-.843,1.98Q93.636,25.412,85.87,46.457a1.507,1.507,0,0,0,.4,1.884,8.19,8.19,0,0,1,2.425,5.438,1,1,0,0,0,.79,1.075c1.014.314,2.012.692,2.992,1.1a8.781,8.781,0,0,1,5.2,10.394,65.519,65.519,0,0,1-11.626,22.9,27.2,27.2,0,0,1-31.115,8.268c-.493-.183-.677-.4-.656-.917.038-.926.011-1.854.011-2.623C52.015,93.3,49.8,92.813,47.716,92c-6.268-2.43-10.438-7.068-13.225-13.05-.992-2.129-1.869-4.311-2.848-6.586,1.687.143,3.208.257,4.726.4A17.775,17.775,0,0,0,55.077,61c.937-2.559,1.857-5.124,2.8-7.681a8.978,8.978,0,0,1,12-5.608,2.508,2.508,0,0,1,.284.1c1.589.8,2.9.984,4.437-.513,1.018-.99,2.774-1.323,4.264-1.685.742-.18,1.12-.35,1.385-1.074Q88.214,22.768,96.232,1.019C96.346.71,96.468.4,96.622,0l5.618,1.985ZM88.6,73.658,60.607,63.47c-3.68,8.688-10.161,13.693-19.394,15.269a16.562,16.562,0,0,0,5.947,6.316A18.986,18.986,0,0,0,57.2,87.908c1.016.005,2.033,0,3.106,0v4.919c5.348,1.461,12.115.057,17.02-3.513,5.436-3.957,8.167-9.843,11.274-15.658M81.581,58.334c.326-.921.631-1.755.917-2.595a3,3,0,1,0-5.635-2.019c-.312.825-.617,1.653-.947,2.538-.51-.177-.914-.313-1.315-.457-2.342-.847-4.676-1.713-7.025-2.537a2.872,2.872,0,0,0-3.647,1.209A32.644,32.644,0,0,0,62.6,57.812l28.159,10.25c.226-.594.433-1.114.621-1.639a13.423,13.423,0,0,0,.5-1.512,2.931,2.931,0,0,0-1.823-3.47c-.642-.27-1.307-.486-1.961-.726l-6.509-2.382M30.056,82.041v5.792A12.342,12.342,0,0,0,18.032,99.848H12.175a12.166,12.166,0,0,0-3.664-8.429A12.421,12.421,0,0,0,0,87.893V81.955a12.418,12.418,0,0,0,8.534-3.545,12.055,12.055,0,0,0,3.627-8.43H18c.777,7.2,4.765,11.235,12.051,12.061m-14.69-1.594-4.707,4.822L14.73,89.3l4.762-4.728-4.126-4.128M30.226,34.01h5.763c.779,7.221,4.772,11.247,12.054,12.06v5.764c-7.208.786-11.243,4.774-12.052,12.052H30.225c-.786-7.22-4.783-11.246-12.059-12.048V46.066c7.24-.768,11.243-4.784,12.06-12.056M29.111,48.93,33.1,52.982l3.991-4.008-3.957-4.035-4.02,3.991" transform="matrix(0.985, 0.174, -0.174, 0.985, 17.338, 0)"/></svg>