<svg xmlns="http://www.w3.org/2000/svg" width="577.5" height="61.201" viewBox="0 0 577.5 61.201">
  <g id="en_logo" transform="translate(-3467.5 81.5)">
    <text id="Environmental_Protection_AdministrationExecutive_Yuan_R.O.C._Taiwan_" data-name="Environmental Protection AdministrationExecutive Yuan, 
R.O.C. (Taiwan)" transform="translate(3542 -71)" fill="#fff" font-size="10" font-family="Arial-BoldMT, Arial" font-weight="700"><tspan x="0" y="9">Environmental Protection </tspan><tspan x="0" y="22">AdministrationExecutive Yuan, </tspan><tspan x="0" y="35">R.O.C. (Taiwan)</tspan></text>
    <line id="直线_24" data-name="直线 24" y2="48" transform="translate(3707.5 -74.5)" fill="none" stroke="#fff" stroke-width="1"/>
    <text id="Environmental_Project_s_Achievements_Reports_Query_System" data-name="Environmental Project’s Achievements Reports Query System" transform="translate(3723 -56)" fill="#fff" font-size="18" font-family="Arial-BoldMT, Arial" font-weight="700"><tspan x="0" y="0">Environmental Project’s </tspan><tspan x="0" y="21">Achievements Reports Query System</tspan></text>
    <g id="组_3693" data-name="组 3693" transform="translate(3468 -81)">
      <path id="路径_34" data-name="路径 34" d="M112.619,754.735a30.1,30.1,0,1,1-30.1-30.1A30.1,30.1,0,0,1,112.619,754.735Z" transform="translate(-52.419 -724.634)" fill="#fff"/>
      <g id="组_23" data-name="组 23" transform="translate(2.757 29.4)">
        <path id="路径_35" data-name="路径 35" d="M110.89,777.852a29.676,29.676,0,0,1-54.626.352H79.9L88.19,766s.439-.764.983-.11S99.119,778,99.119,778l11.771-.147" transform="translate(-56.264 -765.629)" fill="#7db33d"/>
        <path id="路径_36" data-name="路径 36" d="M110.89,777.852a29.676,29.676,0,0,1-54.626.352H79.9L88.19,766s.439-.764.983-.11S99.119,778,99.119,778l11.771-.147" transform="translate(-56.264 -765.629)" fill="#7db33d" stroke="#85c538" stroke-width="0.311"/>
      </g>
      <path id="路径_37" data-name="路径 37" d="M111.768,760.184a29.666,29.666,0,1,0-58.886-5.124q0,.546.019,1.09H63.243l11.779-17.884s.437-1.31,1.746-.22a24.886,24.886,0,0,1,2.727,2.836l-12.324,18.1H52.884l.326,1.964H68.151l18.431-27.484a1.1,1.1,0,0,1,1.963-.218c1.2,1.309,20.285,27.047,20.285,27.047Z" transform="translate(-52.55 -724.85)" fill="#007dc6"/>
      <path id="路径_38" data-name="路径 38" d="M111.768,760.184a29.666,29.666,0,1,0-58.886-5.124q0,.546.019,1.09H63.243l11.779-17.884s.437-1.31,1.746-.22a24.886,24.886,0,0,1,2.727,2.836l-12.324,18.1H52.884l.326,1.964H68.151l18.431-27.484a1.1,1.1,0,0,1,1.963-.218c1.2,1.309,20.285,27.047,20.285,27.047Z" transform="translate(-52.55 -724.85)" fill="none" stroke="#338bbc" stroke-width="0.311"/>
      <g id="组_24" data-name="组 24" transform="translate(1.314 17.529)">
        <path id="路径_39" data-name="路径 39" d="M54.251,769.5H73.773l13.3-20.067s.655-.873,1.526.109,15.813,19.522,15.813,19.522l.5.5h6.807l-.437,1.247H104.2L88.277,751.723s-.436-.873-1.09.219-12.194,18.87-12.194,18.87H54.709Z" transform="translate(-54.251 -749.076)" fill="#7db33d"/>
        <path id="路径_40" data-name="路径 40" d="M54.251,769.5H73.773l13.3-20.067s.655-.873,1.526.109,15.813,19.522,15.813,19.522l.5.5h6.807l-.437,1.247H104.2L88.277,751.723s-.436-.873-1.09.219-12.194,18.87-12.194,18.87H54.709Z" transform="translate(-54.251 -749.076)" fill="#7db33d" stroke="#85c538" stroke-width="0.311"/>
      </g>
      <path id="路径_2467" data-name="路径 2467" d="M112.619,754.735a30.1,30.1,0,1,1-30.1-30.1A30.1,30.1,0,0,1,112.619,754.735Z" transform="translate(-52.419 -724.634)" fill="none" stroke="#fff" stroke-width="1"/>
    </g>
  </g>
</svg>
