<svg xmlns="http://www.w3.org/2000/svg" width="104.822" height="120.772" viewBox="0 0 104.822 120.772"><defs><style>.a{fill:#fff;}</style></defs><path class="a" d="M39.785,107.2H38.738l-4.769-4.52-4.862,4.52H28.06c-1.556-.736-1.2-2.238-1.283-3.589-3.86,0-7.595.111-11.32-.022A16.018,16.018,0,0,1,.012,87.582Q-.021,51.572.02,15.562a12.521,12.521,0,0,1,.351-2.889A15.952,15.952,0,0,1,16.487.006Q50.665-.009,84.843,0c2.21,0,2.693.486,2.693,2.708q0,49.095,0,98.189c0,2.263-.479,2.734-2.781,2.735H41.108c-.061,1.434.274,2.889-1.323,3.566M16.178,71.333H83.914V3.62H16.178Zm67.73,18.012c-2.347,0-4.611.034-6.873-.013a1.784,1.784,0,1,1,.035-3.547c1.918-.032,3.837-.008,5.756-.014.364,0,.729-.035,1.071-.052V82.194H82.589q-32.759,0-65.518,0c-.522,0-1.046.024-1.567.068a4.886,4.886,0,0,0-3.432,1.781,5.071,5.071,0,0,0-.858,5.661,5.285,5.285,0,0,0,5.194,3.208c3.244.023,6.489.007,9.733,0a3.944,3.944,0,0,0,.576-.082V89.35c-3.329,0-6.572.005-9.815-.006A5.126,5.126,0,0,1,15.56,89.2a1.592,1.592,0,0,1-1.22-1.73,1.621,1.621,0,0,1,1.374-1.619,4.874,4.874,0,0,1,.936-.073c4.148-.041,8.3-.111,12.445-.106,6.8.008,13.6.065,20.4.106a4.068,4.068,0,0,1,.936.078,1.738,1.738,0,0,1,.193,3.323,4.263,4.263,0,0,1-1.339.165c-2.268.015-4.535.007-6.8.007H41.254v3.513H83.909ZM26.762,96.5c-3.042,0-5.971.013-8.9-.007a22.967,22.967,0,0,1-3.024-.164,8.444,8.444,0,0,1-6.952-5.345,8.466,8.466,0,0,1,1.043-8.71c1.972-2.7,4.763-3.675,8.025-3.673q32.764.025,65.529.009h1.4v-3.5h-.915q-33.235,0-66.471,0a13.51,13.51,0,0,0-2.089.089A12.639,12.639,0,0,0,3.68,86.584c-.563,6.339,4.09,12.581,10.436,13.237,3.7.382,7.453.184,11.183.245.475.008.951,0,1.462,0Zm57.166.042H41.207V100h42.72Zm-71.4-40.384a12.039,12.039,0,0,0-8.726,9.927c-.308,3.358-.169,6.756-.224,10.137,0,.291.033.583.047.813a37.464,37.464,0,0,1,3.938-3.107A45.068,45.068,0,0,1,12.1,71.906a.925.925,0,0,0,.409-.7c.024-4.987.018-9.975.018-15.045m-.065-14.771V27.479a12.045,12.045,0,0,0-8.668,9.9c-.287,2.834-.163,5.709-.216,8.566a8.715,8.715,0,0,0,.088.9,16.57,16.57,0,0,1,8.8-5.458m18,48.044v11.4l.239.155c.554-.622,1.078-1.275,1.668-1.861,1.122-1.113,2.023-1.1,3.154-.018.608.583,1.206,1.176,1.879,1.835V89.43Zm-26.8-71.3a16.96,16.96,0,0,1,8.275-5.339,1.141,1.141,0,0,0,.568-.875c.058-1.533.027-3.069.027-4.6v-3.1C6.64,5.929,3.043,11.571,3.662,18.129M3.7,28.924a.981.981,0,0,0,.257-.147A16.126,16.126,0,0,1,11.9,23.8c.22-.06.547-.318.55-.489.037-2.247.025-4.495.025-6.764-4.995.868-9.553,7.37-8.769,12.372m.157,28.82a8.234,8.234,0,0,1,.552-.735,16.006,16.006,0,0,1,5.831-3.952c.731-.293,1.756-.379,2.118-.916.375-.557.118-1.546.121-2.346.007-1.513,0-3.027,0-4.572-5.2,1.169-9.124,6.74-8.623,12.522M80.4,37.654A30.363,30.363,0,1,1,50.164,7.172,30.417,30.417,0,0,1,80.4,37.654M50.019,10.711A26.794,26.794,0,1,0,76.832,37.486,26.9,26.9,0,0,0,50.019,10.711m.021,13.62C52,22,54.548,21.353,57.39,21.42c2.126.049,4.255,0,6.382.015,1.7.015,2.339.661,2.35,2.349.015,2.406.026,4.813,0,7.219-.055,4.989-3.371,8.274-8.38,8.319-1.915.017-3.83,0-5.837,0v7.084c.446.068.916.137,1.385.211a8.919,8.919,0,0,1,7.43,8.487,1.8,1.8,0,0,1-1.955,2.052q-8.736.028-17.472,0A1.775,1.775,0,0,1,39.353,55.1a8.89,8.89,0,0,1,7.32-8.468c.476-.078.955-.137,1.492-.212v-7.1c-1.954,0-3.862.008-5.769,0a8.464,8.464,0,0,1-5.21-1.552,7.821,7.821,0,0,1-3.231-6.382c-.062-2.614-.034-5.231-.009-7.846.013-1.346.646-2.07,1.955-2.087,2.823-.036,5.647-.009,8.47.052a7.694,7.694,0,0,1,5.668,2.824M51.967,33c.348-.323.6-.545.841-.781.99-.983,1.957-1.989,2.967-2.95A1.788,1.788,0,1,1,58.27,31.8c-.328.36-.685.7-1.032,1.038-.9.891-1.811,1.78-2.814,2.765a37.042,37.042,0,0,0,4.771-.043,3.422,3.422,0,0,0,3.111-2.984c.247-2.464.065-4.972.065-7.57-1.886,0-3.8-.008-5.707.005a6.738,6.738,0,0,0-1.456.121A3.817,3.817,0,0,0,52.02,28.22,30.351,30.351,0,0,0,51.967,33m-6.474,2.61c-.186-.22-.341-.432-.524-.617-.932-.941-1.872-1.873-2.806-2.811-1.218-1.222-1.377-2.206-.5-3.06.821-.8,1.852-.63,2.989.5.445.442.885.889,1.331,1.33.676.668,1.356,1.333,2.2,2.159,0-1.442.007-2.621,0-3.8a4.036,4.036,0,0,0-3.885-4.222c-1.943-.126-3.9-.062-5.85-.071-.3,0-.594.054-.923.086,0,2.223-.066,4.349.019,6.469a4.012,4.012,0,0,0,3.337,4,38.132,38.132,0,0,0,4.617.037M56.729,53.573a4.986,4.986,0,0,0-4.446-3.5,44.291,44.291,0,0,0-4.494,0,4.813,4.813,0,0,0-4.412,3.5Z" transform="matrix(0.985, 0.174, -0.174, 0.985, 18.615, 0)"/></svg>