<svg xmlns="http://www.w3.org/2000/svg" width="104.291" height="104.266" viewBox="0 0 104.291 104.266"><defs><style>.a{fill:#fff;}</style></defs><path class="a" d="M63.665,30.919,39.382,6.779,9.391,36.626a5.625,5.625,0,0,1,4.692,5.547V75.792a.963.963,0,0,0,.008.135l22.548.006-.053,5.62H13.394c-2.726,0-4.937-2.579-4.937-5.761V42.173H2.832a2.936,2.936,0,0,1-1.744-5.221L37.427.788A2.843,2.843,0,0,1,38.344.2a3.064,3.064,0,0,1,.363-.07A2.951,2.951,0,0,1,39.379,0h0a2.792,2.792,0,0,1,.751.143A2.521,2.521,0,0,1,40.417.2a2.868,2.868,0,0,1,.442.284,2.85,2.85,0,0,1,.475.307L59.567,18.914,71.643,30.919ZM33.773,22.483A5.626,5.626,0,1,0,39.4,16.857a5.624,5.624,0,0,0-5.626,5.626M22.522,56.237a2.813,2.813,0,0,0-5.626,0V70.3a2.81,2.81,0,0,0,2.813,2.813H33.773V67.489H22.522ZM19.709,39.36A2.81,2.81,0,0,0,16.9,42.173V47.8a2.813,2.813,0,0,0,5.626,0V42.173a2.81,2.81,0,0,0-2.813-2.813M89.206,85.2a2.812,2.812,0,1,1-3.977,3.977L72.866,76.811a22.557,22.557,0,1,1,3.977-3.975Zm-13.24-26.14A16.877,16.877,0,1,0,59.089,75.936,16.9,16.9,0,0,0,75.966,59.059M59.089,44.994A14.08,14.08,0,0,0,45.025,59.059a2.813,2.813,0,1,0,5.626,0,8.449,8.449,0,0,1,8.439-8.439,2.813,2.813,0,0,0,0-5.626" transform="matrix(0.985, 0.174, -0.174, 0.985, 15.628, 0)"/></svg>