<svg xmlns="http://www.w3.org/2000/svg" width="104.686" height="93.678" viewBox="0 0 104.686 93.678"><defs><style>.a{fill:#fff;}</style></defs><path class="a" d="M0,66.64V0H92.4V66.639H56.114l.9,6.854h4.149V78.83H31.3V73.477c1.189,0,2.327-.023,3.464.01.521.015.762-.136.81-.683.082-.928.234-1.849.349-2.774.138-1.116.268-2.232.41-3.425h-.936q-17.337,0-34.674,0c-.24,0-.48.022-.72.033M5.453,47.508H86.986V5.491H5.453Zm0,13.592H86.988v-8H5.452ZM51.521,73.441l-.884-6.793H41.823l-.87,6.793Zm13.222-46.8A18.509,18.509,0,1,1,46.282,8.115,18.579,18.579,0,0,1,64.743,26.644m-31.581-.055A13.071,13.071,0,1,0,46.283,13.54a13.119,13.119,0,0,0-13.121,13.05m15.722-2.32h-5.3v11.76h5.3ZM43.621,21.94h5.255V16.718H43.621Z" transform="matrix(0.985, 0.174, -0.174, 0.985, 13.689, 0)"/></svg>