<svg id="line" xmlns="http://www.w3.org/2000/svg" width="25" height="25" viewBox="0 0 25 25">
  <circle id="椭圆_1" data-name="椭圆 1" cx="12.5" cy="12.5" r="12.5" transform="translate(0)" fill="#fff"/>
  <g id="组_1" data-name="组 1" transform="translate(5 9.167)">
    <path id="路径_7" data-name="路径 7" d="M35.8,19.433a.633.633,0,0,0,0-1.267H33.267v-1.9H35.8A.633.633,0,0,0,35.8,15H32.633a.633.633,0,0,0-.633.633v6.333a.633.633,0,0,0,.633.633H35.8a.633.633,0,0,0,0-1.267H33.267v-1.9Z" transform="translate(-19.433 -15)" fill="#1472af"/>
    <path id="路径_8" data-name="路径 8" d="M12.8,22.6H9.633A.633.633,0,0,1,9,21.967V15.633a.633.633,0,0,1,1.267,0v5.7H12.8a.633.633,0,1,1,0,1.267Z" transform="translate(-11 -15)" fill="#1472af"/>
    <path id="路径_9" data-name="路径 9" d="M18.633,22.6A.633.633,0,0,1,18,21.967V15.633a.633.633,0,1,1,1.267,0v6.333A.633.633,0,0,1,18.633,22.6Z" transform="translate(-14.3 -15)" fill="#1472af"/>
    <path id="路径_10" data-name="路径 10" d="M26.433,22.6a.633.633,0,0,1-.543-.307L23.267,17.92v4.047a.633.633,0,1,1-1.267,0V15.633a.633.633,0,0,1,1.176-.326L25.8,19.68V15.633a.633.633,0,1,1,1.267,0v6.333a.633.633,0,0,1-.464.611A.643.643,0,0,1,26.433,22.6Z" transform="translate(-15.767 -15)" fill="#1472af"/>
  </g>
</svg>
