<svg xmlns="http://www.w3.org/2000/svg" width="197.776" height="50.1" viewBox="0 0 197.776 50.1"><g transform="translate(-70.721 -722.303)"><g transform="translate(71.221 722.803)"><path d="M101.519,749.184a24.55,24.55,0,1,1-24.55-24.55A24.549,24.549,0,0,1,101.519,749.184Z" transform="translate(-52.419 -724.634)" fill="#fff"/><g transform="translate(2.249 23.979)"><path d="M100.818,775.6a24.2,24.2,0,0,1-44.554.287H75.545l6.758-9.951s.358-.623.8-.09,8.111,9.874,8.111,9.874l9.6-.12" transform="translate(-56.264 -765.629)" fill="#7db33d"/><path d="M100.818,775.6a24.2,24.2,0,0,1-44.554.287H75.545l6.758-9.951s.358-.623.8-.09,8.111,9.874,8.111,9.874l9.6-.12" transform="translate(-56.264 -765.629)" fill="#7db33d"/><path d="M78.481,790.638a24.352,24.352,0,0,1-22.359-14.691l-.094-.217H75.463l6.709-9.879a.737.737,0,0,1,.565-.378.643.643,0,0,1,.488.271c.422.506,7.416,9.027,8.064,9.817l9.763-.122-.091.218a24.356,24.356,0,0,1-22.481,14.98ZM56.5,776.041a24.048,24.048,0,0,0,44.08-.284l-9.438.118-.047-.058c-.077-.093-7.671-9.346-8.11-9.873a.357.357,0,0,0-.249-.16c-.139,0-.271.179-.3.228l-.006.01-6.8,10.019Z" transform="translate(-56.264 -765.629)" fill="#85c538"/></g><path d="M100.91,753.77a24.2,24.2,0,1,0-48.028-4.179q0,.446.015.889h8.435l9.607-14.587s.357-1.069,1.424-.18a20.294,20.294,0,0,1,2.224,2.313L64.535,752.792H52.884l.266,1.6H65.336l15.033-22.416a.9.9,0,0,1,1.6-.178c.979,1.068,16.545,22.06,16.545,22.06Z" transform="translate(-52.611 -724.95)" fill="#007dc6"/><path d="M65.419,754.549h-12.4l-.318-1.913H64.453l9.94-14.6a19.655,19.655,0,0,0-2.129-2.2,1.121,1.121,0,0,0-.666-.317c-.364,0-.509.422-.511.427l-.006.019-.011.017-9.653,14.657H52.747l-.005-.15c-.01-.3-.015-.6-.015-.894a24.35,24.35,0,1,1,48.7,0,24.538,24.538,0,0,1-.363,4.206l-.022.124-2.6.1-.049-.066c-.156-.21-15.572-21-16.534-22.047a.961.961,0,0,0-.662-.382c-.415,0-.683.519-.685.524l-.01.017Zm-12.137-.311H65.253L80.234,731.9a1.229,1.229,0,0,1,.958-.686,1.246,1.246,0,0,1,.892.483c.956,1.042,15.378,20.486,16.506,22.006l2.188-.082a24.04,24.04,0,1,0-47.741-4.029c0,.24,0,.486.01.734h8.2l9.551-14.5a.907.907,0,0,1,.8-.618,1.407,1.407,0,0,1,.865.39,20.615,20.615,0,0,1,2.245,2.335l.073.09-10.163,14.93H53.067Z" transform="translate(-52.611 -724.95)" fill="#338bbc"/><g transform="translate(1.072 14.297)"><path d="M54.251,765.735H70.174l10.852-16.367s.535-.712,1.245.089,12.9,15.922,12.9,15.922l.409.408h5.552l-.356,1.017H94.99L82,751.235s-.356-.712-.889.178S71.169,766.8,71.169,766.8H54.625Z" transform="translate(-54.251 -749.076)" fill="#7db33d"/><path d="M54.251,765.735H70.174l10.852-16.367s.535-.712,1.245.089,12.9,15.922,12.9,15.922l.409.408h5.552l-.356,1.017H94.99L82,751.235s-.356-.712-.889.178S71.169,766.8,71.169,766.8H54.625Z" transform="translate(-54.251 -749.076)" fill="#7db33d"/><path d="M100.883,766.959H94.918L81.872,751.321l-.008-.016c-.024-.047-.118-.183-.223-.183s-.251.136-.393.372c-.529.881-9.564,14.8-9.948,15.4l-.046.071H54.514l-.482-1.38H70.09l10.811-16.3a.931.931,0,0,1,.687-.354,1.088,1.088,0,0,1,.8.433c.7.791,12.328,15.215,12.9,15.921l.357.356h5.707Zm-5.819-.311h5.6l.247-.706h-5.4l-.466-.466c-.122-.151-12.191-15.128-12.893-15.916a.8.8,0,0,0-.566-.329.619.619,0,0,0-.437.228L70.257,765.89H54.47l.265.758H71.084c.715-1.1,9.39-14.471,9.9-15.315.208-.347.43-.523.66-.523a.609.609,0,0,1,.493.338Z" transform="translate(-54.251 -749.076)" fill="#85c538"/></g><path d="M76.968,774.234a24.973,24.973,0,1,1,9.752-1.969A24.892,24.892,0,0,1,76.968,774.234Zm0-49.1a24.05,24.05,0,1,0,24.05,24.05A24.077,24.077,0,0,0,76.968,725.134Z" transform="translate(-52.419 -724.634)" fill="#fff"/></g><text transform="translate(125.221 762.803)" fill="#fff" font-size="12" font-family="MicrosoftJhengHeiBold, Microsoft JhengHei" letter-spacing="-0.024em"><tspan x="0" y="0">環保專案成果報告查詢系統</tspan></text><text transform="translate(124.496 744.803)" fill="#fff" font-size="18" font-family="MicrosoftJhengHeiBold, Microsoft JhengHei"><tspan x="0" y="0">行政院環境保護署</tspan></text></g></svg>