<svg xmlns="http://www.w3.org/2000/svg" width="22.065" height="21.239" viewBox="0 0 22.065 21.239">
  <g id="mail" transform="translate(0 0)">
    <path id="mail-2" data-name="mail" d="M2.546,21.239a2.307,2.307,0,0,1-1.8-.947A3.718,3.718,0,0,1,0,18.007V7.542A.983.983,0,0,1,.849,6.465.983.983,0,0,1,1.7,7.542V18.007a.984.984,0,0,0,.849,1.077H19.519a.984.984,0,0,0,.849-1.077V7.542a.983.983,0,0,1,.849-1.077.983.983,0,0,1,.849,1.077V18.007a3.718,3.718,0,0,1-.747,2.284,2.307,2.307,0,0,1-1.8.947Zm7.979-8.526-10-9.545A1.272,1.272,0,0,1,.269,1.842a3.417,3.417,0,0,1,.5-.894A2.3,2.3,0,0,1,2.564,0H19.5a2.3,2.3,0,0,1,1.8.948,3.415,3.415,0,0,1,.5.894,1.274,1.274,0,0,1-.254,1.325l-10,9.545a.707.707,0,0,1-1.016,0ZM2.327,2.155l8.7,8.349,8.706-8.349a.6.6,0,0,0-.238,0H2.564a.591.591,0,0,0-.237,0Z" transform="translate(0 0)" fill="#fff"/>
  </g>
</svg>
