<svg xmlns="http://www.w3.org/2000/svg" width="109.856" height="114.622" viewBox="0 0 109.856 114.622"><defs><style>.a{fill:#fff;}</style></defs><path class="a" d="M8.383,30.693l-2.834-1.31c1.981-4.906,7.652-8.16,14.111-8.1l.029,3.234c-5.168-.049-9.818,2.491-11.306,6.175m42.52-1.15c-.1-10.923-8.626-19.889-19.012-19.986A18.5,18.5,0,0,0,14.179,22.811l2.92,1.069A15.478,15.478,0,0,1,31.92,12.791c8.69.082,15.826,7.584,15.908,16.724q.006.623-.032,1.236l3.068.268c.03-.485.043-.982.038-1.475m5.515-14.972A4.194,4.194,0,0,0,57.3,10.7c-.958-4.63-5.993-5.484-9.673-5.2A7.08,7.08,0,0,0,43.611.574a6.83,6.83,0,0,0-6.818.738c-2.765,2.432.684,7.383,1.4,8.351L40.607,7.7c-1.184-1.6-1.943-3.465-1.816-3.892a4.027,4.027,0,0,1,3.7-.244c1.356.583,2.159,1.886,2.387,3.874a1.673,1.673,0,0,0,.614,1.12,1.5,1.5,0,0,0,1.189.312c.068-.012,6.894-1.03,7.616,2.46.143.691-.04.891-.117.976-.748.822-3.511.826-5.216.513L48.486,16a16.07,16.07,0,0,0,2.671.254c1.786.017,3.986-.293,5.261-1.688M40.979,18.885,38.63,20.926c.02.025,2.005,2.729,1.276,8.725l3.05.468c.911-7.486-1.859-11.086-1.977-11.235M93.948,41.051l-.015-1.721A5.763,5.763,0,0,0,88.4,33.512L5.431,32.731A5.512,5.512,0,0,0,0,38.445l.015,1.721A5.763,5.763,0,0,0,5.55,45.984l82.967.781a5.512,5.512,0,0,0,5.431-5.714m-5.521-4.3A2.531,2.531,0,0,1,90.858,39.3l.015,1.721a2.421,2.421,0,0,1-2.386,2.509L5.521,42.75A2.531,2.531,0,0,1,3.09,40.2l-.015-1.721A2.421,2.421,0,0,1,5.46,35.965ZM84.133,90.869l5.409-45.5a1.7,1.7,0,0,0-.378-1.283A1.537,1.537,0,0,0,88,43.527L6,42.754a1.478,1.478,0,0,0-1.153.541A1.654,1.654,0,0,0,4.5,44.572L10.73,90.177a1.6,1.6,0,0,0,1.537,1.416L16,91.629l-.029-3.234-2.388-.022L7.791,46l78.482.739L81.248,89.01l-2.4-.023.029,3.234,3.739.035a1.532,1.532,0,0,0,1.512-1.387M57.611,88.787l-20.465-.193.029,3.234,20.465.193ZM35.347,90.194a9.31,9.31,0,0,0-8.941-9.4,8.906,8.906,0,0,0-8.773,9.232,9.309,9.309,0,0,0,8.94,9.4,8.906,8.906,0,0,0,8.774-9.231m-3.075-.029a5.814,5.814,0,0,1-5.728,6.027,6.078,6.078,0,0,1-5.836-6.135,5.814,5.814,0,0,1,5.727-6.027,6.078,6.078,0,0,1,5.837,6.136m45.376.427a9.31,9.31,0,0,0-8.941-9.4,8.906,8.906,0,0,0-8.773,9.232,9.309,9.309,0,0,0,8.94,9.4,8.906,8.906,0,0,0,8.774-9.231m-3.075-.029a5.814,5.814,0,0,1-5.728,6.027,6.078,6.078,0,0,1-5.836-6.135,5.814,5.814,0,0,1,5.727-6.027,6.078,6.078,0,0,1,5.837,6.136M65.211,14.739a24.6,24.6,0,0,0-6.006.675l.741,3.152a21.663,21.663,0,0,1,5.293-.594c9.113.086,16.575,5.6,16.635,12.294l3.075.029c-.076-8.476-8.93-15.455-19.738-15.557M82.595,14.6a5.231,5.231,0,0,0,.8-4.207c-.276-1.478-1.593-4.818-7.825-3.918a1.357,1.357,0,0,1-1.258-.46,6.42,6.42,0,0,0-5.583-2.348,6.2,6.2,0,0,0-4.92,2.782C62.1,9.537,65.1,13.561,65.452,14.01l2.37-2.015c-.852-1.108-1.794-3.07-1.347-3.874a3.491,3.491,0,0,1,2.548-1.229,3.328,3.328,0,0,1,2.969,1.2,4.379,4.379,0,0,0,4.053,1.591c1.491-.214,4.036-.334,4.337,1.281a1.917,1.917,0,0,1-.229,1.628,3.659,3.659,0,0,1-2.371,1.085l.229,3.228a6.522,6.522,0,0,0,4.583-2.3M56.286,56.176,37.96,56l.029,3.234,18.326.173Z" transform="matrix(0.985, 0.174, -0.174, 0.985, 17.334, 0)"/></svg>