<svg xmlns="http://www.w3.org/2000/svg" width="101.744" height="86.276" viewBox="0 0 101.744 86.276">
  <path id="Medicine" d="M382.085,406.527a17.893,17.893,0,0,0,31.934,8.563l27.8-36.218a17.9,17.9,0,0,0-12.757-28.732h0a18.075,18.075,0,0,0-3.769.1,17.775,17.775,0,0,0-11.861,6.845l-27.8,36.218A17.775,17.775,0,0,0,382.085,406.527Zm42.9-11.8-13.9,18.109a14.191,14.191,0,0,1-22.514-17.282l13.9-18.109ZM352.113,377.6a20.32,20.32,0,0,1,32.5-23.809Zm29.842,6.649a20.324,20.324,0,0,1-26.681-2.334l32.5-23.809A20.324,20.324,0,0,1,381.955,384.249Zm-12.924,46.01A15.415,15.415,0,0,1,346.6,409.5Zm.639-23.184a15.418,15.418,0,0,1,2.117,20.207L349.36,406.518A15.418,15.418,0,0,1,369.67,407.074Z" transform="translate(-343.779 -347.529)" fill="#fff"/>
</svg>
