<svg xmlns="http://www.w3.org/2000/svg" width="81.957" height="109.87" viewBox="0 0 81.957 109.87"><defs><style>.a{fill:#fff;fill-rule:evenodd;}</style></defs><path class="a" d="M31.2,22.5a2.969,2.969,0,1,0-2.968-2.969A2.969,2.969,0,0,0,31.2,22.5m0-4.476a1.507,1.507,0,1,1-1.507,1.507A1.507,1.507,0,0,1,31.2,18.024M26.7,7.97a2.753,2.753,0,1,1,2.753,2.753A2.753,2.753,0,0,1,26.7,7.97M39.6,19.522a1.472,1.472,0,1,1,.59,2,1.472,1.472,0,0,1-.59-2M36.371,9.3a1.484,1.484,0,1,0-.6-2.013,1.484,1.484,0,0,0,.6,2.013m.047-1.664a.754.754,0,1,1,.3,1.022.754.754,0,0,1-.3-1.022m-2.234,6.081a1.256,1.256,0,1,1,1.256,1.256,1.256,1.256,0,0,1-1.256-1.256m-3.4,71.863q-1.023.373-2.05.686v.021q-.528.161-1.071.306V86.57q-1.026.281-2.054.5a43.833,43.833,0,0,1-5.772.758,36,36,0,0,1-5.925-.2q5.094-3.814,14.5-5.244a29.766,29.766,0,0,1-19.028-9.2q6.81.22,18.516,6.328a51.821,51.821,0,0,1-14.711-26.1c9.444,7.47,15.274,15.945,18.184,24.1q-5.577-18.978,1.426-38.588,7,19.61,1.426,38.588c2.962-8.237,8.74-16.634,18.184-24.1a51.821,51.821,0,0,1-14.711,26.1Q49.4,73.408,56.209,73.189a29.766,29.766,0,0,1-19.029,9.2q9.4,1.432,14.5,5.244a36,36,0,0,1-5.925.2,43.832,43.832,0,0,1-5.772-.758q-1.028-.22-2.054-.5v.018q-.543-.145-1.071-.306v-.021q-1.026-.313-2.05-.686c-.175-.064-.35-.13-.525-.2a10.19,10.19,0,0,0,.635,2.354A7.589,7.589,0,0,0,38.51,91.7c5.081,2.62,11.608.545,15.463-3.31a29.959,29.959,0,0,0-16.52-50.772l-.645-.1V28.524H28.78v8.988l-.645.1A29.962,29.962,0,0,0,25.243,96.2a54.755,54.755,0,0,0,16.224,1.66,4.117,4.117,0,0,1,.749-.047,41.525,41.525,0,0,0,4.4-.546l-4.124,1.275A32.8,32.8,0,1,1,25.682,35.186V28.524H22.419v-3.1H43.169v3.1H39.907v6.662A32.8,32.8,0,0,1,55.982,90.394C51.172,95.2,43.5,97.463,37.21,94.217a10.4,10.4,0,0,1-4.917-5.405,13.236,13.236,0,0,1-.877-3.474q-.316.121-.634.237M45.536,5.812A1.256,1.256,0,1,1,44.28,7.068a1.257,1.257,0,0,1,1.256-1.256m-3.355-3.7a1.256,1.256,0,1,1,1.256,1.256A1.256,1.256,0,0,1,42.181,2.11M21.975,13.234A2.969,2.969,0,1,1,19.007,16.2a2.969,2.969,0,0,1,2.968-2.968m22.177,2.888a2.969,2.969,0,1,0-2.968-2.969,2.969,2.969,0,0,0,2.968,2.969m0-4.476a1.507,1.507,0,1,1-1.507,1.507,1.507,1.507,0,0,1,1.507-1.507M31.958,1.256a1.256,1.256,0,1,1,1.256,1.256,1.256,1.256,0,0,1-1.256-1.256M20.715,3.391a1.256,1.256,0,1,1,1.256,1.256,1.256,1.256,0,0,1-1.256-1.256m-2.46,7.424a1.484,1.484,0,1,0-.6-2.013,1.484,1.484,0,0,0,.6,2.013M18.3,9.151a.754.754,0,1,1,.3,1.022.754.754,0,0,1-.3-1.022m10.592,5.792a1.256,1.256,0,1,1,1.256-1.256,1.256,1.256,0,0,1-1.256,1.256" transform="matrix(0.985, 0.174, -0.174, 0.985, 17.365, 0)"/></svg>