<svg xmlns="http://www.w3.org/2000/svg" width="110.577" height="110.417" viewBox="0 0 110.577 110.417"><defs><style>.a{fill:#fff;}</style></defs><path class="a" d="M82.8,95.284H80.376c-1.1-.823-2.273-1.566-3.282-2.489-1.551-1.417-2.989-2.957-4.485-4.453-.338.183-.614.32-.878.477a46.512,46.512,0,0,1-14.4,5.59c-1.754.361-3.536.587-5.3.876H43.449a1.8,1.8,0,0,0-.423-.154,46.744,46.744,0,0,1-15.865-4.477,47.281,47.281,0,0,1-26.62-50A45.959,45.959,0,0,1,13.026,14.93,46.551,46.551,0,0,1,44.267.143,45.624,45.624,0,0,1,71.621,6.39c12.736,7.628,20.346,18.926,23.108,33.491.351,1.851.507,3.738.754,5.608V50.9c-.063.359-.134.718-.188,1.078-.3,1.963-.477,3.95-.9,5.885a46.479,46.479,0,0,1-10.58,20.865c-.317.364-.619.742-.968,1.16.577.558,1.077,1.023,1.557,1.509,1.179,1.193,2.415,2.338,3.506,3.607a4.4,4.4,0,0,1,.024,5.818c-1.5,1.707-2.967,3.5-5.132,4.464M47.9,75.032c10.885.228,20.512-9.153,20.746-20.214a20.935,20.935,0,1,0-41.856-.89c-.277,11.547,9.03,20.851,21.11,21.1m1.217-47.667c2.25,0,4.418,0,6.586,0,1.034,0,1.669.5,1.7,1.317.034.8-.6,1.416-1.6,1.464-1.4.067-2.8.071-4.192.114-.372.011-.743.067-1.115.1a25.259,25.259,0,0,1,10.621,4.125A23.791,23.791,0,0,1,69.9,45.561c.106.268.391.654.6.662,1.6.056,3.206.031,4.867.031a66.8,66.8,0,0,0-2.716-17.979l-9.461,1.3c-1.138.156-1.874-.259-2.012-1.136s.443-1.464,1.6-1.623l9.177-1.256c-1.165-2.527-2.139-4.944-3.362-7.227C65.775,13.055,62.163,8.442,56.89,5.366a17.644,17.644,0,0,0-7.772-2.472ZM23.585,25.447c3.771,1.056,20.041,2.475,22.62,1.995V2.88a17.433,17.433,0,0,0-8.027,2.632C30.67,10.188,26.651,17.43,23.585,25.447m68.94,23.667H78.173a72.12,72.12,0,0,1-2.731,18.424l10.71,3.248a44.416,44.416,0,0,0,6.374-21.671M19.919,67.541A72.949,72.949,0,0,1,17.162,49.11H2.827a44.475,44.475,0,0,0,6.4,21.665l10.688-3.234M17.173,46.2A72.328,72.328,0,0,1,19.92,27.79L9.234,24.556A44.359,44.359,0,0,0,2.833,46.2ZM75.443,27.783a71.9,71.9,0,0,1,2.734,18.4H92.529a44.445,44.445,0,0,0-6.4-21.631L75.443,27.783M46.2,92.475V78.1c-2.64-.732-5.2-1.255-7.621-2.157a21.749,21.749,0,0,1-8.825-6.36c-.223-.257-.6-.6-.862-.57-1.74.212-3.468.517-5.175.787-.014.171-.04.239-.022.291a42.015,42.015,0,0,0,9.921,16.217A20.435,20.435,0,0,0,46.2,92.475m2.916.023c7.444-.883,12.476-5.244,16.7-10.934a4.848,4.848,0,0,1-.175-7.245l-2.2-2.44a23.82,23.82,0,0,1-14.321,5.914ZM19.993,46.256c1.451,0,2.844-.057,4.229.022a1.277,1.277,0,0,0,1.466-.993A23.694,23.694,0,0,1,41.48,31.175c1.1-.308,2.232-.488,3.35-.723A156.654,156.654,0,0,1,22.77,28.215c-1.434,3.747-2.862,13.022-2.777,18.041M33.749,5.088A44.714,44.714,0,0,0,10.786,22.163l9.961,2.923c2.839-7.8,6.672-14.711,13-20m50.79,17.074C78.5,13.3,69,7.15,61.5,5.094c6.45,5.322,10.317,12.235,13.114,19.989l9.922-2.921M10.79,73.173A44.57,44.57,0,0,0,33.606,90.129C27.368,84.852,23.558,78,20.751,70.265L10.79,73.173m60.432,9.8c3.006,3.012,5.966,6.016,8.975,8.971a1.871,1.871,0,0,0,2.823-.07c.75-.7,1.459-1.438,2.18-2.165,1.325-1.336,1.328-2.238,0-3.569-2.587-2.593-5.186-5.173-7.763-7.776a5.384,5.384,0,0,1-.63-.972l-5.584,5.581M24.476,49.126h-4.5a67.523,67.523,0,0,0,2.745,18l4.654-.784a24.147,24.147,0,0,1-2.9-17.22M68.05,66.361l4.581.769A67.266,67.266,0,0,0,75.366,49.1h-4.4A24.172,24.172,0,0,1,68.05,66.361m16.642,6.8c-3.343-.933-6.463-1.811-9.591-2.658-.192-.052-.62.114-.647.24a1.076,1.076,0,0,0,.151.852c1.225,1.272,2.507,2.489,3.745,3.748.818.832,1.594,1.7,2.483,2.659l3.858-4.843m-15.652,7.66,5.453-5.448c-.515-.49-1.076-1.07-1.686-1.592a1.815,1.815,0,0,0-2.608,0c-.965.874-1.889,1.8-2.766,2.763a1.849,1.849,0,0,0-.018,2.611c.521.61,1.122,1.153,1.625,1.663m1.353,5.735-2.576-2.706-6.149,6.492.038.156,8.688-3.942m1.531-16.727c-1.734-.269-3.211-.437-4.658-.746-.833-.178-1.372-.017-1.657.635l2.232,2.4A5.29,5.29,0,0,1,71.2,70.451c.2-.013.376-.309.727-.618m-42.811-12.9c1.536,8.7,7.877,14.822,16.364,15.824A18.8,18.8,0,0,0,66.116,57.892a1.454,1.454,0,0,0-1.01-1.9c-.753-.183-1.417.278-1.694,1.208-.231.772-.375,1.575-.656,2.327A16.033,16.033,0,0,1,45.325,69.923c-9.637-1.28-15.916-11.418-12.933-20.7a16.065,16.065,0,0,1,17.1-11.028,15.406,15.406,0,0,1,11.757,7.45,33.5,33.5,0,0,1,2.177,5.4A1.479,1.479,0,0,0,65.1,52.17a1.448,1.448,0,0,0,1.042-1.808,17.121,17.121,0,0,0-3.124-7.2C58.1,36.743,51.555,34.221,43.64,35.7c-8.436,1.571-14.8,9.552-14.856,18.19.107,1.017.153,2.045.33,3.049M46.406,53.87c1.783-1.783,3.408-3.4,5.028-5.029A4,4,0,0,1,54.3,47.49a3.815,3.815,0,0,1,3.12,6.154,5.947,5.947,0,0,1-.551.629c-2.457,2.46-4.907,4.926-7.38,7.371-1.909,1.887-4.067,1.881-5.976-.009C41.857,60,40.193,58.368,38.6,56.673a3.721,3.721,0,0,1-.578-4.322,3.56,3.56,0,0,1,3.856-1.982,5.948,5.948,0,0,1,2.411,1.241,20.15,20.15,0,0,1,2.117,2.26m9.052-2.442a4.061,4.061,0,0,0-.107-.526c-.291-.748-1.195-.811-1.916-.1-1.856,1.835-3.692,3.691-5.542,5.532-1.063,1.058-1.708,1.06-2.758.022-.95-.939-1.89-1.889-2.837-2.832-.479-.477-1.04-.646-1.565-.154-.571.535-.4,1.126.1,1.631,1.576,1.588,3.15,3.178,4.745,4.746.684.672,1.163.671,1.843,0q3.774-3.74,7.514-7.514a4.063,4.063,0,0,0,.517-.8" transform="matrix(0.985, 0.174, -0.174, 0.985, 16.546, 0)"/></svg>