<svg xmlns="http://www.w3.org/2000/svg" width="120.516" height="120.687" viewBox="0 0 120.516 120.687"><defs><style>.a{fill:#fff;}</style></defs><path class="a" d="M27.266,104.211c-1.24-.322-2.505-.572-3.716-.982A14.894,14.894,0,0,1,17.6,99.267a12.856,12.856,0,0,1-.822-1.046c-1.522.9-2.84,1.723-4.2,2.466a1.087,1.087,0,0,1-1-.073C7.714,96.808,3.887,92.968,0,89.082L25.3,46.5l-4.667-4.576,4.19-4.19L63.355,76.268l-4.2,4.191c-1.293-1.311-2.7-2.72-4.08-4.151-.352-.364-.62-.494-1.118-.193-3.567,2.15-7.155,4.267-10.734,6.4a1.35,1.35,0,0,0-.223.18c.345,1.587.8,3.083.983,4.612A15.173,15.173,0,0,1,31.3,104.008a7.636,7.636,0,0,0-.777.2ZM7.789,87.916l5.354,5.36L49.917,71.429,29.637,51.153,7.789,87.916m29.652-1.971-15.312,9.1a9.073,9.073,0,0,0,15.312-9.1M103.982.042V1.348c0,11.937-.036,23.875.017,35.812.022,4.956-2.361,8.421-6.526,10.663A12.164,12.164,0,0,1,79.565,37.3a20.355,20.355,0,0,0-2.718-9.663,24.383,24.383,0,0,1-3.381-12.91C73.741,7.028,80.391.266,88.077.068c5.25-.135,10.505-.026,15.905-.026m-6,12.521V6.127c-2.958,0-5.836,0-8.715,0-.3,0-.611,0-.914.025a9.365,9.365,0,0,0-8.376,6.765,12.021,12.021,0,0,0,.592,7.956c.849,2.236,2.019,4.349,3.016,6.531a23.612,23.612,0,0,1,2.065,9.455,6.111,6.111,0,0,0,4,5.9,6.276,6.276,0,0,0,8.4-6.071c.036-5.761.009-11.523.006-17.285,0-.193-.035-.387-.061-.665-.893,0-1.733,0-2.573,0a7.815,7.815,0,0,0-1.015.033,3.026,3.026,0,0,0-2.642,3.2c.07,1.509.965,2.4,2.974,2.963v5.949A9.088,9.088,0,0,1,93.454,12.8c1.473-.176,2.968-.164,4.53-.241M53.944,34.756a1.452,1.452,0,0,0-.233.933c-.019,2.34.026,4.681-.039,7.019a2.486,2.486,0,0,1-.618,1.482c-1.578,1.717-3.227,3.369-4.829,5.022l4.4,4.3c2.249-2.314,4.573-4.686,6.863-7.091a1.6,1.6,0,0,0,.308-1,49.067,49.067,0,0,0-.022-5.388,4.7,4.7,0,0,1,1.824-4.4c1.33-1.119,2.477-2.457,3.572-3.565l-4.123-4.24c-2.359,2.294-4.745,4.6-7.1,6.935m9.825,26.5c1.623-.761,3.634-1.176,4.75-2.4,1.142-1.255,1.581-3.267,2.006-5.026a5.645,5.645,0,0,1,4.051-4.388,39.785,39.785,0,0,0,4.225-1.95l-2.58-5.511c-3.095,1.441-6.13,2.841-9.145,4.283a1.484,1.484,0,0,0-.533.8c-.76,2.027-1.551,4.045-2.211,6.1a2.929,2.929,0,0,1-1.816,1.961c-1.95.831-3.854,1.771-5.835,2.693l2.571,5.524c1.573-.728,3.047-1.405,4.516-2.094M38.721,26.769a1.5,1.5,0,0,0,.122.963c.783,2.2,1.624,4.377,2.363,6.59a2.431,2.431,0,0,1-.075,1.593c-.92,2.13-1.93,4.22-2.933,6.38l5.524,2.57c1.441-3.083,2.845-6.045,4.194-9.032a1.74,1.74,0,0,0-.081-1.149c-.772-2.2-1.614-4.38-2.357-6.592a2.274,2.274,0,0,1,.065-1.5c.928-2.133,1.937-4.23,2.959-6.427l-5.519-2.586c-1.456,3.119-2.881,6.144-4.263,9.188" transform="matrix(0.985, 0.174, -0.174, 0.985, 18.096, 0)"/></svg>