<svg xmlns="http://www.w3.org/2000/svg" width="102.183" height="103.895" viewBox="0 0 102.183 103.895"><defs><style>.a{fill:#fff;}</style></defs><path class="a" d="M45.357,0c.047.059.092.169.141.171a10.03,10.03,0,0,1,4.2,1.457,10.036,10.036,0,0,1,1.64,1.412,12.959,12.959,0,0,1,2.453,3.339c.735,1.206,1.394,2.456,2.183,3.632.5.752.874,1.593,1.335,2.376.717,1.216,1.471,2.411,2.192,3.626a2.723,2.723,0,0,1-.3,3.34,3.541,3.541,0,0,1-1.764.913,3.415,3.415,0,0,1-1.652-.5,6.65,6.65,0,0,1-1.266-1.606c-.722-1.214-1.375-2.468-2.181-3.633-.31-.448-.487-.985-.768-1.456-.909-1.522-1.842-3.029-2.757-4.547a8.2,8.2,0,0,0-.642-1.15,5.477,5.477,0,0,0-3.04-1.879,4.606,4.606,0,0,0-1.353-.15,5.221,5.221,0,0,0-4.475,2.7c-.473.847-1.059,1.631-1.521,2.483-.3.56-.6,1.12-.952,1.649-.15.223-.261.472-.441.8a1.35,1.35,0,0,0,.413-.005,19.189,19.189,0,0,1,1.9-.555,2.6,2.6,0,0,1,2.915,1.1,2,2,0,0,1,.363,1.275,7.742,7.742,0,0,0-.007.956,10.99,10.99,0,0,1-.725,1.05,2.362,2.362,0,0,1-1.528.813c-.346.047-.666.258-1.011.337-1.319.3-2.56.889-3.911,1.073a16.051,16.051,0,0,1-2.426.794,4.858,4.858,0,0,1-1.414.427,2.611,2.611,0,0,1-2.031-.654,3.32,3.32,0,0,1-1.164-2.1q-.6-2.059-1.231-4.11c-.3-.973-.534-1.967-.859-2.935a7.249,7.249,0,0,1-.392-1.608,3.129,3.129,0,0,1,.26-1.036A2.491,2.491,0,0,1,27.17,6.231a1.772,1.772,0,0,1,1.707.011,2.456,2.456,0,0,1,1.286,1.006,6.9,6.9,0,0,1,.618,1.526c.174.693.4,1.374.61,2.091a10.8,10.8,0,0,0,.8-1.182c.595-1.186,1.341-2.283,1.966-3.45A12.842,12.842,0,0,1,37.3,2.3,9.937,9.937,0,0,1,41.371.33c.362-.085.721-.106,1.076-.183.031-.007.043-.1.065-.147ZM64.85,30.382a2.059,2.059,0,0,0-1.153,1.29,14.6,14.6,0,0,0-.558,1.99c-.215.769-.44,1.535-.663,2.3-.192.661-.434,1.311-.568,1.983-.163.817-.414,1.608-.633,2.407-.315,1.143-.35,1.163-.089,1.946a2.443,2.443,0,0,0,2.446,1.822,7.547,7.547,0,0,0,1.355-.224,3.7,3.7,0,0,0,1.309-1.632c.189-.517.234-1.086.416-1.606.115-.331.05-.775.472-1,.305.5.619.962.876,1.453.475.909,1.071,1.747,1.564,2.641a6.468,6.468,0,0,1,1.184,3.783,5.644,5.644,0,0,1-.856,2.676,5.3,5.3,0,0,1-.776.917,4.7,4.7,0,0,1-3.55,1.5c-4.176.015-8.353.008-12.529,0a3.248,3.248,0,0,0-1.084.175,2.841,2.841,0,0,0-1.84,2.239,2.622,2.622,0,0,0,2.657,2.933c4.5-.024,9-.012,13.507,0a7.114,7.114,0,0,0,2.072-.366,10.169,10.169,0,0,0,2.853-1.263A10.954,10.954,0,0,0,76.123,48.8a26.442,26.442,0,0,0-.146-3.487,10.043,10.043,0,0,0-.815-2.423c-.342-.691-.763-1.342-1.118-2.026-.306-.591-.647-1.157-1-1.718-.382-.6-.708-1.238-1.086-1.908.6-.184,1.049.127,1.525.227a4.055,4.055,0,0,0,1.323.247,7.782,7.782,0,0,1,.952-.008c.224-.092.352-.14.476-.2a2.678,2.678,0,0,0,.344-4.563,4.147,4.147,0,0,0-1.444-.575c-.8-.209-1.608-.4-2.4-.644-.657-.2-1.317-.427-1.978-.574-1.191-.266-2.339-.68-3.53-.94a4,4,0,0,0-.82-.153c-.326,0-.652,0-1,0a3.221,3.221,0,0,1-.553.328M28.167,52.638c-2.133,0-4.267.01-6.4,0a4.321,4.321,0,0,1-2.04-.649,5.513,5.513,0,0,1-1.609-1.454,5,5,0,0,1-.708-1.211,5.318,5.318,0,0,1-.322-2.352,7.381,7.381,0,0,1,.181-1.258,5.564,5.564,0,0,1,.3-.586c.4-1.1,1.2-1.982,1.649-3.05.485-.384.571-1.013.917-1.492a16.68,16.68,0,0,0,1.382-2.269c.436-.868.985-1.664,1.461-2.505.38-.672.778-1.335,1.127-2.022a2.644,2.644,0,0,0-1.288-3.554c-.124-.06-.249-.116-.382-.178-.286,0-.583.014-.878,0a2.4,2.4,0,0,0-2.144,1.2c-.546.791-.965,1.67-1.439,2.51-.434.769-.861,1.546-1.323,2.292-.745,1.2-1.456,2.423-2.163,3.644a22.9,22.9,0,0,0-2.043,3.775,10.345,10.345,0,0,0-.695,2.911c0,.415.022.831,0,1.244a7.655,7.655,0,0,0,.761,3.864,10.6,10.6,0,0,0,9.734,6.49c1.955-.03,3.911-.007,5.867,0a3.367,3.367,0,0,1,.478.084c-.164.194-.247.3-.343.4-.543.547-1.071,1.109-1.637,1.631a2.59,2.59,0,0,0-.546,2.647,2.29,2.29,0,0,0,1.6,1.6,2.04,2.04,0,0,0,1.236.177,4.09,4.09,0,0,0,1.741-.955c1.965-2.015,3.971-3.99,5.96-5.982a5.385,5.385,0,0,0,.705-.86,2.33,2.33,0,0,0-.233-3.019c-2.243-2.323-4.546-4.589-6.844-6.858a1.933,1.933,0,0,0-1.521-.614c-.292.021-.586,0-.721,0A2.838,2.838,0,0,0,26.006,49.7c.5,1.223,1.64,1.881,2.474,2.907-.146.014-.229.029-.313.029M17.7,87.288a10.4,10.4,0,0,0,3.626-7.381A10.274,10.274,0,0,0,18.7,72.292a10.364,10.364,0,0,0-7.454-3.661,10.26,10.26,0,0,0-7.6,2.655A10.591,10.591,0,0,0,2.7,86.344a10.736,10.736,0,0,0,7.941,3.644,10.8,10.8,0,0,0,7.056-2.7M5.576,84.223a7.063,7.063,0,0,1,.187-10.065,6.9,6.9,0,0,1,5.13-1.98,6.878,6.878,0,0,1,4.938,2.23,6.911,6.911,0,0,1,1.948,5.144,6.637,6.637,0,0,1-1.065,3.468,6.065,6.065,0,0,1-2.27,2.3,6.9,6.9,0,0,1-3.822,1.086,7.047,7.047,0,0,1-5.046-2.182m69.116,4.285a1.9,1.9,0,0,0,2.184,1.44,2.882,2.882,0,0,0,1.405-1.463V81.993c.491.59.876,1.082,1.292,1.546.722.8,1.464,1.588,2.2,2.381.04.043.105.077.122.127.148.436.54.669.819.995.3.348.588.7.881,1.057.368.444.906.738,1.139,1.306.036.087.173.137.268.2a1.991,1.991,0,0,0,1.464.345l.909-.468.463-.9a2.032,2.032,0,0,0-.6-1.8c-.845-.875-1.614-1.811-2.391-2.744-.652-.783-1.376-1.507-2.065-2.26-.111-.122-.2-.26-.318-.406a17.881,17.881,0,0,0,1.822-.666,6.229,6.229,0,0,0,2.638-2.371,6.136,6.136,0,0,0,.7-5.032,6.393,6.393,0,0,0-4.088-4.263,5.184,5.184,0,0,0-1.784-.419c-1.748.007-3.5-.011-5.245.009a1.631,1.631,0,0,0-1.639,1.047c-.041.1-.1.2-.176.335Zm3.58-16.336a26.848,26.848,0,0,1,3.5.036,2.627,2.627,0,0,1,2.173,1.6c.085.2.209.389.353.651a.7.7,0,0,0,0,.179,2.58,2.58,0,0,1-.731,2.176,2.78,2.78,0,0,1-1.916,1.038c-1.116.054-2.237.014-3.378.014ZM43.78,80.944l.235-.235h2.821q2.577,0,5.153,0c.239,0,.477-.023.645.293v7.65A1.785,1.785,0,0,0,53.9,89.885a1.5,1.5,0,0,0,1.571-.354,2.444,2.444,0,0,0,.727-1.831q.007-8.352,0-16.7a2.394,2.394,0,0,0-1.365-2.381,4.119,4.119,0,0,0-.662.008,6.406,6.406,0,0,0-.789.231c-.741.737-.741.737-.741,1.826v6.45H43.765v-7.4l-.774-.919a2.239,2.239,0,0,1-.427-.051,1.358,1.358,0,0,0-1.633.269,2.373,2.373,0,0,0-.739,1.826q0,8.352,0,16.7A2.391,2.391,0,0,0,41.681,90l1.332-.237.767-.969Zm19.886-3.466c0-1.743,0-3.457,0-5.17a.145.145,0,0,1,.03-.075.41.41,0,0,1,.063-.06h5.926a1.888,1.888,0,0,0,1.444-2.149l-.484-.937-.915-.47c-2.555,0-5.19-.005-7.824,0a1.751,1.751,0,0,0-1.624.975,1.973,1.973,0,0,0-.177.994c0,6.011,0,12.023,0,17.969.1.2.185.344.249.5a1.493,1.493,0,0,0,1.477.892c2.662.03,5.325.013,7.888.013l.938-.483.474-.925c0-.027-.007-.144,0-.259a1.824,1.824,0,0,0-1.883-1.9c-1.391.036-2.783.009-4.175.009H63.686V81.083h5.475l.957-.493.478-.926a1.939,1.939,0,0,0-1.53-2.187ZM24.817,68.607a1.576,1.576,0,0,0-1.219.5,4.452,4.452,0,0,1-.4.347l-.213.9.183.9a2.636,2.636,0,0,1,.237.24,1.845,1.845,0,0,0,1.672.7c.937-.041,1.878-.01,2.841-.01V88.545l.487.943.911.468c.22,0,.515,0,.81,0,.044,0,.081-.083.13-.11a2,2,0,0,0,1.227-1.881c-.024-5-.011-10.009-.011-15.013v-.758c.109-.01.138-.016.166-.016H34.4a1.674,1.674,0,0,0,1.885-1.444,1.828,1.828,0,0,1,.185-.348c-.6-1.286-.6-1.286-1.346-1.764-3.435,0-6.87.008-10.3-.009" transform="matrix(0.985, 0.174, -0.174, 0.985, 15.629, 0)"/></svg>