<svg xmlns="http://www.w3.org/2000/svg" width="104.072" height="138.578" viewBox="0 0 104.072 138.578"><defs><style>.a{fill:#fff;}</style></defs><path class="a" d="M73.557,115.388a7.7,7.7,0,0,1-3.3-.747l1.845-4.328a3.525,3.525,0,0,0,4.744-1.9,3.864,3.864,0,0,0-1.8-4.993,3.521,3.521,0,0,0-4.744,1.9,2.211,2.211,0,0,1-2.978,1.19l-10.167-4.814L59,97.366l8.4,3.98a7.842,7.842,0,0,1,9.486-2.253,8.723,8.723,0,0,1,4.062,11.268,8.1,8.1,0,0,1-7.4,5.027m3.165,4.883a8.886,8.886,0,0,0-.986-8.722l-3.562,2.9a3.946,3.946,0,0,1,.437,3.871,3.518,3.518,0,0,1-4.743,1.9,3.682,3.682,0,0,1-1.881-2.1,3.94,3.94,0,0,1,.083-2.89,2.426,2.426,0,0,0-1.131-3.137l-13.528-6.407-1.847,4.327,11.761,5.571a8.909,8.909,0,0,0,.449,4.218,8.3,8.3,0,0,0,4.248,4.748,7.7,7.7,0,0,0,3.306.75,8.093,8.093,0,0,0,7.394-5.026m-40.7-33.786L20.337,79.058a8.639,8.639,0,0,0-4.695-8.969,7.672,7.672,0,0,0-6.191-.195,8.228,8.228,0,0,0-4.508,4.472A8.721,8.721,0,0,0,9,85.635l1.848-4.327a3.866,3.866,0,0,1-1.8-5,3.648,3.648,0,0,1,2-1.982,3.4,3.4,0,0,1,2.744.085,3.869,3.869,0,0,1,1.8,5,2.426,2.426,0,0,0,1.131,3.136l17.452,8.264Zm15.385,19.2-4.359-2.064L45.2,107.946l4.36,2.064ZM24.74,93.052l-10.4-4.924a2.147,2.147,0,0,0-1.723-.055,2.313,2.313,0,0,0-1.255,1.245,3.65,3.65,0,0,1-2,1.983,3.388,3.388,0,0,1-2.744-.087,3.865,3.865,0,0,1-1.8-4.994A3.6,3.6,0,0,1,7.86,84l-.3-4.734a8.1,8.1,0,0,0-6.848,5.01A8.72,8.72,0,0,0,4.772,95.542a7.646,7.646,0,0,0,6.192.2,8.049,8.049,0,0,0,3.3-2.445l8.632,4.088ZM11.411,114.641l-1.846-4.328a3.526,3.526,0,0,1-4.744-1.9,3.865,3.865,0,0,1,1.8-4.994,3.518,3.518,0,0,1,4.743,1.9,2.212,2.212,0,0,0,2.978,1.19L27.871,100.1l-1.848-4.328-11.764,5.571a7.84,7.84,0,0,0-9.486-2.253A8.722,8.722,0,0,0,.712,110.361a8.1,8.1,0,0,0,7.395,5.027,7.723,7.723,0,0,0,3.3-.747m4.231,9.907A8.293,8.293,0,0,0,19.89,119.8a8.9,8.9,0,0,0,.449-4.218L32.1,110.01l-1.848-4.327-13.527,6.407a2.425,2.425,0,0,0-1.131,3.137,3.934,3.934,0,0,1,.082,2.89,3.68,3.68,0,0,1-1.882,2.1,3.519,3.519,0,0,1-4.742-1.9,3.946,3.946,0,0,1,.438-3.871l-3.563-2.9a8.889,8.889,0,0,0-.984,8.722,8.09,8.09,0,0,0,7.391,5.026,7.7,7.7,0,0,0,3.307-.75m49.3-42a2.426,2.426,0,0,0,1.131-3.136,3.869,3.869,0,0,1,1.8-5,3.517,3.517,0,0,1,4.742,1.9,3.938,3.938,0,0,1,.083,2.891,3.673,3.673,0,0,1-1.882,2.1l1.847,4.327a8.3,8.3,0,0,0,4.248-4.747,8.893,8.893,0,0,0-.186-6.522,8.23,8.23,0,0,0-4.509-4.472,7.677,7.677,0,0,0-6.191.195,8.639,8.639,0,0,0-4.695,8.969l-35.3,16.717,1.848,4.328ZM67.4,93.293a8.064,8.064,0,0,0,3.3,2.445,7.66,7.66,0,0,0,6.192-.195,8.722,8.722,0,0,0,4.062-11.268,8.1,8.1,0,0,0-6.85-5.01L73.8,84a3.594,3.594,0,0,1,3.039,2.223,3.865,3.865,0,0,1-1.8,4.994A3.388,3.388,0,0,1,72.3,91.3a3.644,3.644,0,0,1-2-1.983,2.315,2.315,0,0,0-1.256-1.245,2.147,2.147,0,0,0-1.723.055L30.252,105.683,32.1,110.01ZM39.9,0C25.705,0,14.159,10.358,14.159,23.087h4.506c0-10.113,9.525-18.342,21.234-18.342s21.231,8.229,21.231,18.342h4.506C65.635,10.358,54.089,0,39.9,0M20.116,49.485c.456-.224.99-.476,1.579-.757,7.115-3.381,14.193-7.084,15.756-11.884a5.986,5.986,0,0,0-.332-4.628,18.955,18.955,0,0,0-5.937-6.724c-3.261-2.219-6.539-2.616-9.232-1.117-2.547,1.417-5.662,5-7.938,9.122-1.595,2.891-3.982,8.312-2.053,12.151C13.65,49.017,15.945,50,17.827,50a5.252,5.252,0,0,0,2.289-.515m8.62-20.008a14.2,14.2,0,0,1,4.4,4.956,1.021,1.021,0,0,1,.053.873c-1.061,3.26-9.671,7.351-13.347,9.1-.608.289-1.158.55-1.63.782-.707.351-1.536-.292-2.271-1.757-.5-1-.1-3.8,1.966-7.55,2.033-3.683,4.632-6.466,6.149-7.31a2.783,2.783,0,0,1,1.374-.344,6.282,6.282,0,0,1,3.306,1.253m39.3,15.363h0c2.771-6.552-6.111-18.071-11.326-20.52-5.831-2.738-12.36,3.521-14.637,8.9a5.991,5.991,0,0,0-.036,4.639C43.9,42.534,51.192,45.728,58.5,48.6c.608.238,1.158.455,1.63.646a5.322,5.322,0,0,0,2,.394c2.066,0,4.384-1.232,5.9-4.8M54.872,28.653c3.9,1.829,10.322,11.231,9.044,14.256-.641,1.511-1.428,2.211-2.157,1.912-.485-.2-1.053-.42-1.682-.667C56.3,42.67,47.452,39.2,46.186,36.02a1.022,1.022,0,0,1,0-.872c1.285-3.032,4.8-6.739,7.557-6.739a2.631,2.631,0,0,1,1.132.244M46.706,51.122,41.49,45.643a2.17,2.17,0,0,0-3.181,0l-5.22,5.479,3.181,3.359L39.9,50.672l3.627,3.809ZM40.833,71.139H30.141l1.773-6.385a2.46,2.46,0,0,0-.621-2.4,2.167,2.167,0,0,0-2.309-.5c-2.227.848-5.269,1.575-7.127.2-1.937-1.431-2.037-4.612-2.037-5.236,0-1.178,1.944-2.786,3.348-3.494L22.2,51.187l.961,2.146-1.922-4.29c-.606.3-5.926,3.078-5.926,7.783,0,1.455.286,6.412,3.955,9.122a9.341,9.341,0,0,0,7.208,1.477l-1.5,5.421a2.472,2.472,0,0,0,.359,2.089,2.216,2.216,0,0,0,1.8.95h13.7ZM55.4,74.933a2.472,2.472,0,0,0,.359-2.089l-1.5-5.421a9.351,9.351,0,0,0,7.208-1.477c3.67-2.709,3.955-7.666,3.955-9.122,0-4.7-5.319-7.481-5.926-7.783l-1.92,4.29c1.129.561,3.341,2.212,3.341,3.492,0,.624-.1,3.805-2.037,5.236-1.856,1.374-4.9.644-7.126-.2a2.166,2.166,0,0,0-2.31.5,2.46,2.46,0,0,0-.621,2.4L50.6,71.139H39.9v4.745H53.6a2.218,2.218,0,0,0,1.8-.95" transform="translate(23.907 0) rotate(11)"/></svg>