<svg xmlns="http://www.w3.org/2000/svg" width="112.918" height="112.9" viewBox="0 0 112.918 112.9"><defs><style>.a{fill:#fff;}</style></defs><path class="a" d="M88.127,0a2.092,2.092,0,0,1,1.2,2.158Q89.3,16.24,89.316,30.321c0,1.621-.549,2.172-2.172,2.174q-8.04.012-16.079,0H69.848c0,1.8,0,3.5,0,5.207,0,.92,0,1.839,0,2.759a1.631,1.631,0,0,1-.988,1.6,1.612,1.612,0,0,1-1.839-.363c-.215-.186-.412-.395-.613-.6-2.666-2.671-5.317-5.358-8.015-8A2.205,2.205,0,0,0,57,32.524q-8.277-.06-16.555,0a2.2,2.2,0,0,0-1.386.581c-2.787,2.729-5.516,5.517-8.3,8.253a3.033,3.033,0,0,1-1.439.825c-.94.182-1.707-.676-1.717-1.814-.018-2.252-.006-4.5-.006-6.755V32.5H26.388q-7.945,0-15.889,0c-1.873,0-2.363-.492-2.363-2.367q0-13.939-.013-27.877A2.134,2.134,0,0,1,9.326,0ZM11.456,3.292V29.246h1.2q7.942,0,15.885,0c1.836,0,2.308.477,2.31,2.3,0,1.63,0,3.26,0,5.148,1.17-1.172,2.136-2.165,3.128-3.13,1.452-1.411,2.923-2.8,4.386-4.2,1.994-.04,3.988-.085,5.982-.117.88-.014,1.76,0,2.752,0v-1.14c0-2.156,0-4.312,0-6.468,0-.945-.139-1.978.93-2.5s1.763.237,2.5.855a4.845,4.845,0,0,0,7.727-5.12,4.8,4.8,0,0,0-7.939-2.145c-.672.608-1.358,1.115-2.281.688-.89-.411-.939-1.266-.937-2.118.006-2.315,0-4.629,0-6.944V3.292ZM85.993,29.246V3.291H50.422v5.46c3.963-1.3,7.337-.517,9.769,2.843a7.449,7.449,0,0,1,.334,8.76c-2.36,3.815-5.883,4.686-10.111,3.416v5.476h1.07c2.156,0,4.313.022,6.468-.01a2.7,2.7,0,0,1,2.1.883c1.906,1.95,3.843,3.87,5.771,5.8.2.2.432.383.778.688,0-1.821,0-3.434,0-5.047,0-1.832.472-2.308,2.3-2.31q7.943-.006,15.886,0ZM0,62.431A9.206,9.206,0,0,1,2.288,57.72a8.428,8.428,0,0,1,5.786-2.5c.24-.013.48-.032.87-.058a9.742,9.742,0,0,1-2.217-8.429A9.532,9.532,0,0,1,10.4,40.912a9.9,9.9,0,0,1,12.511.684,10.017,10.017,0,0,1,.653,13.615h1.092q7.612,0,15.223,0c1.846,0,2.359.523,2.361,2.391,0,1.776.012,3.552,0,5.328-.013,1.431-.594,2.016-2.035,2.02-4.408.012-8.817.025-13.225-.013-.808-.007-1,.249-1,1.023q.035,14.462.015,28.925c0,2.146-.421,2.568-2.548,2.568q-7.374,0-14.748,0c-1.661,0-2.21-.556-2.211-2.242q-.006-8.8,0-17.6V76.332c-1.428,0-2.812-.044-4.191.014A2.231,2.231,0,0,1,0,75.183ZM38.964,58.5c-.315-.02-.532-.045-.748-.045q-14.889,0-29.779.006a4.9,4.9,0,0,0-5.19,5.206c-.019,2.886-.006,5.772,0,8.657,0,.241.044.481.067.715H6.5V63.431H9.781v30.7h4.9V76.411H17.92V94.16h4.813V92.9q0-14.414,0-28.827c0-1.863.511-2.365,2.382-2.366q6.375,0,12.749,0h1.1ZM22.708,48.864A6.484,6.484,0,1,0,16.033,55.2a6.471,6.471,0,0,0,6.675-6.334m68.26,27.468v1.128q0,8.752,0,17.5c0,2.015-.465,2.49-2.441,2.49q-7.42,0-14.84,0c-1.677,0-2.223-.535-2.225-2.221q-.012-8.847,0-17.694V76.331c-1.6,0-3.082.013-4.564,0-1.268-.014-1.925-.585-1.924-1.842,0-4.057-.027-8.117.139-12.168a7.873,7.873,0,0,1,6.65-6.947c.658-.08,1.319-.141,2.112-.224a9.783,9.783,0,0,1-1.866-9.55,9.355,9.355,0,0,1,3.782-4.98A9.778,9.778,0,0,1,88.728,55.008a22.221,22.221,0,0,1,3.935,1,7.749,7.749,0,0,1,4.77,7.381c.077,3.677.028,7.356.014,11.034-.005,1.3-.625,1.894-1.951,1.908-1.457.014-2.913,0-4.528,0m-8.112.025V94.132H87.75v-30.7H91v9.582h3.2c0-3.283.05-6.486-.015-9.687a4.8,4.8,0,0,0-4.949-4.848q-8.038-.085-16.077,0c-2.965.036-4.894,2.088-4.946,5.145-.051,2.948-.012,5.9-.008,8.847a4.14,4.14,0,0,0,.072.548h3.2V63.428h3.276V94.152h4.855v-17.8ZM74.741,48.708a6.485,6.485,0,1,0,6.465-6.46,6.478,6.478,0,0,0-6.465,6.46M42.17,14.713H16.262v3.1H42.17ZM16.29,24.3H42.167V21.167H16.29Zm.02-12.994h25.9V8.2H16.31Zm50.374,6.5h14.49V14.7H66.684Zm0,6.486H81.174v-3.12H66.682Zm-.024-12.97H81.167V8.207H66.658Z" transform="matrix(0.985, 0.174, -0.174, 0.985, 16.923, 0)"/></svg>