<svg xmlns="http://www.w3.org/2000/svg" width="85.922" height="88.29" viewBox="0 0 85.922 88.29">
  <path id="recycling" d="M234.729,202.559l-.728-13.2a41.571,41.571,0,0,1,35.1,41.222,42.55,42.55,0,0,1-1.93,12.649l5.315,3.125L256.975,249l-5.461-14.892,4.3,2.5a29.946,29.946,0,0,0,.619-6.031A28.854,28.854,0,0,0,234.729,202.559Zm-17.147,28.279a10.249,10.249,0,1,0,10.23-10.37A10.291,10.291,0,0,0,217.582,230.838Zm10.23,28.608a28.266,28.266,0,0,1-18.787-7.133l4.151-2.427-15.51-2.648-5.461,14.892,5.388-3.162a41,41,0,0,0,62.476-2.354l-11.651-5.994A28.381,28.381,0,0,1,227.812,259.446Zm-28.58-28.865a28.84,28.84,0,0,1,19.588-27.4v5.295l10.013-12.245-10.013-12.246v5.921A41.815,41.815,0,0,0,189.4,245.767l10.958-7.171A29.2,29.2,0,0,1,199.232,230.58Z" transform="translate(-186.562 -183.989)" fill="#fff"/>
</svg>
