<svg xmlns="http://www.w3.org/2000/svg" width="117.216" height="117.213" viewBox="0 0 117.216 117.213"><defs><style>.a{fill:#fff;}</style></defs><path class="a" d="M0,41.7a2.29,2.29,0,0,1,2.363-1.223q18.425.034,36.851.015h1.274V39.23q0-18.376,0-36.752C40.489.465,40.962,0,43.006,0H58.122c2.111,0,2.569.448,2.569,2.525q0,18.326,0,36.653v1.239h7.36c-1.394-6.006-.286-11.349,4.277-15.665a14.459,14.459,0,0,1,11.584-4,14.622,14.622,0,0,1,11.33,6.679c2.691,3.975,3.127,8.36,1.917,13.058.816,0,1.5-.02,2.187,0a1.658,1.658,0,0,1,1.82,1.772q.035,8.3,0,16.6c-.005,1.265-.712,1.822-2.171,1.823q-10.324.007-20.648,0H60.691v1.275q0,18.426.015,36.851a2.292,2.292,0,0,1-1.223,2.362H41.7a2.291,2.291,0,0,1-1.223-2.359q.035-18.456.015-36.912V60.692H39.174q-18.407,0-36.813.015A2.289,2.289,0,0,1,0,59.483ZM3.434,52.293v5.03h37.8c2.145,0,2.624.477,2.625,2.608q0,18.329,0,36.657v1.174H48.9V91.122h3.386v6.613h5.034V60.211c0-2.522.373-2.888,2.937-2.888H77.715c-5.511-6.212-5.5-6.215-8.54-12.921a1.257,1.257,0,0,0-.963-.52c-2.7-.042-5.4-.023-8.1-.024-2.36,0-2.788-.42-2.788-2.741q0-18.279,0-36.559V3.428H52.247v6.616H48.869V3.424H43.857V4.642q0,18.329,0,36.658c0,2.056-.506,2.558-2.576,2.558H3.438v5.061h6.591v3.374Zm79.17,4.6a2.614,2.614,0,0,0,.283-.158A28.655,28.655,0,0,0,93.452,41.41c.816-2.853,1.37-5.748.614-8.754-1.46-5.808-7.445-9.887-13.153-8.887A12.008,12.008,0,0,0,70.9,36.667a27.94,27.94,0,0,0,2.652,9.347A28.509,28.509,0,0,0,82.6,56.894M96.51,43.888c-1.287,2.462-2.352,4.92-3.792,7.135s-3.265,4.205-4.866,6.224h9.89V43.888ZM14.623,101.18a2.5,2.5,0,0,1-1.158-2.424c.038-1.743.008-3.488.011-5.232,0-1.933.5-2.424,2.463-2.445.256,0,.512,0,.909,0v-1.23q0-8.243,0-16.485c0-2.051.5-2.546,2.583-2.549,1.342,0,2.684,0,4.17,0,0-1.461,0-2.83,0-4.2,0-1.684.564-2.514,1.692-2.514s1.687.83,1.692,2.514c0,1.25.006,2.5.013,3.751a3.457,3.457,0,0,0,.084.448h1.507c.888,0,1.777,0,2.665,0,1.936.007,2.482.541,2.484,2.45q.006,5.775,0,11.55v6.267c.543,0,1.023-.015,1.5,0,1.111.041,1.8.573,1.833,1.652.065,2.268.089,4.543-.037,6.806-.031.564-.7,1.093-1.072,1.638ZM30.318,74.273H20.3V91H30.318Zm3.373,20.236H16.928v3.242H33.691Zm50.691,3.376H81.022v3.295h3.359ZM37.114,18.6q0,8,0,16.006c0,1.991-.523,2.508-2.531,2.509q-9.287,0-18.574,0c-2.008,0-2.531-.518-2.531-2.509q0-16.055,0-32.11C13.477.506,13.993,0,16.007,0H34.582C36.6,0,37.112.506,37.113,2.5q0,8.052,0,16.1M16.9,33.664H33.663V3.434H16.9Zm57.3,50.653a5.378,5.378,0,0,1-1.651-.032c-.569-.215-1.328-.562-1.5-1.034a2.219,2.219,0,0,1,.387-1.851c1.13-1.321,2.426-2.5,3.658-3.733q2.93-2.931,5.862-5.861c1.283-1.279,2.067-1.286,3.333-.023q4.611,4.6,9.216,9.205c.63.628,1.183,1.272.789,2.246-.41,1.013-1.286,1.11-2.212,1.1-.292,0-.583,0-1,0,0,.52,0,.969,0,1.419,0,2.2.015,4.408-.006,6.612-.014,1.418-.654,2.073-2.054,2.078q-6.365.025-12.73,0c-1.46,0-2.074-.632-2.089-2.133-.023-2.27-.007-4.539-.007-6.809V84.317m6.7,6.708c.219-1.314-.405-3.258,1.746-3.251,2.129.007,1.519,1.948,1.772,3.223h3.236V84.391H77.651v6.634Zm1.832-15.819-5.646,5.661H88.389l-5.666-5.661M70.343,68.325,68.195,70.2l3.24,3.254,2.053-1.986-3.144-3.145M93.9,91.776,91.78,93.932l3.246,3.241L97.151,95,93.9,91.776M93.835,73.5l3.321-3.211L95,68.089l-3.149,3.157L93.835,73.5M71.316,91.866l-3.089,3.055,2.17,2.207,3.046-3.07-2.127-2.191m26.562-7.608H101.1V81.011H97.878Zm-16.857-16.9h3.272v-3.2H81.021ZM67.377,81.039H64.106v3.2h3.271ZM23.664,52.207H30.3V48.974h-6.64ZM52.189,70.881H48.977v6.654h3.212Zm.02-47.184H48.97v6.612h3.239ZM48.965,40.449h3.227V33.776H48.965ZM13.532,52.208h6.636V48.956H13.532ZM48.962,87.65H52.21V81.04H48.962Zm3.248-26.912H48.961v6.631h3.248ZM40.442,48.963H33.8v3.248h6.644Zm8.523-28.787h3.248v-6.65H48.965ZM74.221,35.423a8.422,8.422,0,0,1,16.845-.016,8.422,8.422,0,1,1-16.845.016m3.377.014a5.071,5.071,0,0,0,5.03,5.04,5.123,5.123,0,0,0,5.061-5.036,5.056,5.056,0,0,0-5.105-5.056A5,5,0,0,0,77.6,35.437M23.664,80.879h3.265V77.654H23.664Zm.015,6.767h3.23v-3.26h-3.23Zm3.357-77.611h3.242V6.771H27.036ZM23.547,6.807H20.28v3.241h3.267Zm6.787,13.872a.673.673,0,0,0-.489-.429c-.907-.044-1.818-.02-2.785-.02v3.326h3.3c0-.995.023-1.937-.023-2.876M23.6,21.943c-.018-2,.26-1.709-1.711-1.711-1.927,0-1.661-.268-1.659,1.658,0,1.972-.293,1.684,1.71,1.715,1.663,0,1.675,0,1.66-1.662m6.672-8.391h-3.23V16.79h3.23Zm-6.744-.021H20.29v3.234h3.239ZM26.99,27.77c.093,3.2-.655,2.5,2.7,2.6.514.015.7-.188.683-.692-.093-3.353.569-2.593-2.512-2.689-.227-.007-.455.022-.808.041a7.12,7.12,0,0,0-.06.738M20.245,29.8c.009.191.243.524.386.531.962.048,1.928.025,2.905.025V27.042H20.227c0,1-.023,1.879.018,2.756" transform="matrix(0.985, 0.174, -0.174, 0.985, 17.57, -0.001)"/></svg>