<svg xmlns="http://www.w3.org/2000/svg" width="107.425" height="111.446" viewBox="0 0 107.425 111.446"><defs><style>.a{fill:#fff;}</style></defs><path class="a" d="M30.772.212c2.244,1.1,3.124,3.312,3.953,5.5a66.24,66.24,0,0,1,3.349,14.322c.572,4.062,1.033,8.139,1.494,12.215a5.674,5.674,0,0,1-5.675,6.469c-.586.016-1.174-.008-1.809-.014l.028,3.077c.092.043.177.122.247.11,1.7-.3,2.57.7,3.378,2.127,1.794,3.168,3.719,6.256,5.591,9.376.957,1.6,1.084,1.652,3.042,1.3-.017-1.945-.025-3.909-.071-5.873,0-.165-.242-.385-.418-.485a1.639,1.639,0,0,1-.754-2.541q2.888-4.684,5.856-9.312a1.478,1.478,0,0,1,2.623-.019q3.121,4.749,6.129,9.578c.674,1.08.228,1.969-1.169,2.569l.057,6.32c.382,0,.754.02,1.124.008a1.716,1.716,0,0,1,1.894,1.386c.33,1.362.949,2.177,2.416,2.182a5.651,5.651,0,0,1,1.96.623,8.6,8.6,0,0,0,6.694,0,10.694,10.694,0,0,1,8.358.079,9.035,9.035,0,0,0,7.118-.01,16.148,16.148,0,0,1,3.107-.716,2.1,2.1,0,0,1,2.37,1.088l.325,36.253a2.14,2.14,0,0,1-2.239,1.119q-43.438-.434-86.876-.832C.993,96.1.555,95.637.537,93.666Q.314,68.828.092,43.989c0-.157-.006-.313,0-.469.018-1.307.554-1.891,1.788-1.893,1.488,0,2.976.024,4.464.038l1.308.012-.029-3.2c-.611-.006-1.171,0-1.73-.018A5.932,5.932,0,0,1,.036,31.674c.4-4.035.784-8.074,1.28-12.094A64.062,64.062,0,0,1,4.4,5.412C5.192,3.238,6.026,1.04,8.27,0L9.52.012a6.469,6.469,0,0,1,2.791,3.073,47.1,47.1,0,0,1,1.9,4.876,96.807,96.807,0,0,1,3.177,16.383c.356,2.793.7,5.6.814,8.407a5.342,5.342,0,0,1-4.718,5.655c-.9.117-1.811.118-2.7.172l.028,3.076,18.143.171-.028-3.148c-.562-.005-1.064,0-1.565-.016-3.818-.091-6.282-2.83-5.948-6.831q.545-6.525,1.371-13.018a60.994,60.994,0,0,1,2.9-13.061c.792-2.2,1.648-4.409,3.842-5.551Zm58.1,93.475-.129-14.406-1.11-.01-21.067-.2c-1.488-.014-1.746-.2-2.307-1.7-2.287-6.113-4.582-12.223-6.84-18.348a1.112,1.112,0,0,0-1.212-.905c-4.761-.011-9.522-.1-14.283-.1a2.292,2.292,0,0,1-2.19-1.291c-2.128-3.619-4.316-7.2-6.451-10.816a1.387,1.387,0,0,0-1.338-.823Q18.017,45,4.091,44.844L3.2,44.835l.43,48.048ZM88.6,61.76c-.789.273-1.515.515-2.234.775a10.2,10.2,0,0,1-7.6-.076,9.732,9.732,0,0,0-7.714-.07,10.1,10.1,0,0,1-7.511-.048c-.579-.217-1.162-.421-1.867-.676.093.3.13.438.18.573,1.616,4.331,3.245,8.657,4.835,13a.882.882,0,0,0,1.007.654q10.178.079,20.356.181a6.2,6.2,0,0,0,.673-.065ZM30.022,3.288c-.567,1.365-1.173,2.528-1.547,3.773-2.489,8.262-3.508,16.82-4.065,25.462a2.5,2.5,0,0,0,2.36,2.871c2.466.121,4.938.146,7.4.077a2.509,2.509,0,0,0,2.363-3.063c-.479-4.039-.914-8.086-1.5-12.111a77.567,77.567,0,0,0-3-13.156,9,9,0,0,0-2.014-3.853M9.137,3.275l-.414.039a7.48,7.48,0,0,0-.773,1.409c-.838,2.777-1.775,5.533-2.4,8.369a129.619,129.619,0,0,0-2.5,18.968,2.719,2.719,0,0,0,2.838,3.188c2.171.052,4.343.069,6.513.063,1.913-.005,2.932-1.125,2.762-3.121-.214-2.525-.468-5.049-.795-7.562a96.019,96.019,0,0,0-3.721-17.79c-.4-1.223-1-2.377-1.515-3.562M47.5,54.77l5.98.056-.056-6.274-5.98-.056Zm6.117-9.482-3.277-5.137-3.185,5.076Zm23.792-41.5,3.036.029L80.421.68,77.385.651Zm13.825,8.267-2.976-.028.029,3.193,2.976.028Zm-12.1,7.822a6.359,6.359,0,0,1-6.153-6.39,6.155,6.155,0,0,1,6.034-6.407,6.48,6.48,0,0,1,6.136,6.469,6.141,6.141,0,0,1-6.016,6.328m-.074-3.2a3.062,3.062,0,0,0,3.044-3.176,3.266,3.266,0,0,0-3.057-3.213,3.068,3.068,0,0,0-3.019,3.205,3.141,3.141,0,0,0,3.032,3.184M86.555,3.692,84.7,5.567l1.9,2.147,1.881-1.9L86.555,3.692m-16.8,17.615,1.758,2.131,2.1-2.064L71.82,19.459l-2.063,1.848m-2.814-6.364,2.926.028-.028-3.1-2.926-.028ZM77.7,26.218l2.957.028L80.626,23.2l-2.957-.028ZM69.5,5.417l1.841,2.058,2.209-1.992-1.97-2.061-2.08,2m19.175,16.23-2.011-2.12-2.017,1.934,2.035,2.2,1.992-2.018" transform="matrix(0.985, 0.174, -0.174, 0.985, 16.834, 0)"/></svg>