<svg xmlns="http://www.w3.org/2000/svg" xmlns:xlink="http://www.w3.org/1999/xlink" width="137.969" height="137.969" viewBox="0 0 137.969 137.969"><defs><style>.a{fill:none;}.b{fill:#f7a663;}.c{fill:#ffc80a;}.d{clip-path:url(#a);}.e{fill:#fdd633;}.f{fill:#f4ca19;}</style><clipPath id="a"><rect class="a" width="101" height="101"/></clipPath></defs><g transform="translate(0 87.469) rotate(-60)"><path class="b" d="M89.967,0,85.645,21.95h8.644Z" transform="translate(-39.467)"/><path class="c" d="M46.831,12.548l7.232,21.17,3.743-2.161L61.548,29.4Z" transform="translate(-21.58 -5.782)"/><path class="b" d="M12.548,46.83,29.4,61.548,31.557,57.8l2.161-3.743Z" transform="translate(-5.783 -21.58)"/><path class="c" d="M0,89.967l21.949,4.322V85.646Z" transform="translate(0 -39.468)"/><path class="b" d="M12.548,127.912l21.169-7.231-2.161-3.743-2.16-3.744Z" transform="translate(-5.783 -52.162)"/><path class="c" d="M46.831,156.68l14.717-16.848L57.8,137.671l-3.742-2.161Z" transform="translate(-21.58 -62.446)"/><path class="b" d="M89.968,168.561l4.322-21.949H85.646Z" transform="translate(-39.467 -67.562)"/><path class="c" d="M127.913,156.68l-7.232-21.17-3.742,2.161-3.743,2.16Z" transform="translate(-52.163 -62.446)"/><path class="b" d="M156.68,127.912l-16.848-14.718-2.16,3.744-2.162,3.742Z" transform="translate(-62.446 -52.162)"/><path class="c" d="M146.612,89.966v4.322l21.95-4.322-21.95-4.322Z" transform="translate(-67.562 -39.467)"/><path class="b" d="M156.68,46.83l-21.17,7.232L137.67,57.8l2.161,3.744Z" transform="translate(-62.445 -21.58)"/><path class="c" d="M127.912,12.548,113.193,29.4l3.744,2.161,3.742,2.161Z" transform="translate(-52.162 -5.782)"/><g transform="translate(0 0)"><g class="d"><path class="e" d="M97.454,71.359A26.094,26.094,0,1,1,71.36,45.265,26.094,26.094,0,0,1,97.454,71.359" transform="translate(-20.859 -20.859)"/><path class="f" d="M45.265,71.359A26.094,26.094,0,0,0,71.359,97.453V45.265A26.094,26.094,0,0,0,45.265,71.359" transform="translate(-20.859 -20.859)"/></g></g></g></svg>