<svg xmlns="http://www.w3.org/2000/svg" width="104.627" height="100.924" viewBox="0 0 104.627 100.924"><defs><style>.a{fill:#fff;}</style></defs><path class="a" d="M91,60.112a9.489,9.489,0,0,1-1.85,3.96A6.471,6.471,0,0,1,84.6,66.581c-4.4.14-8.81.046-13.27.046v-2.94h.916c3.584,0,7.168.006,10.753,0,3.111-.008,4.97-1.865,4.97-4.983q.007-25.327,0-50.653c0-3.125-1.856-5-4.958-5q-37.5-.006-75,0A4.58,4.58,0,0,0,3.032,8.027q-.007,25.326,0,50.653c0,3.163,1.856,5,5.037,5.005q26.437,0,52.875,0h1.194v2.99c-.292.015-.6.045-.912.045q-26.571,0-53.141,0c-3.971,0-6.8-2.058-7.8-5.694a8.726,8.726,0,0,1-.27-2.282Q-.009,33.372.005,8A7.58,7.58,0,0,1,7.99.023q37.5-.014,75-.023a7.71,7.71,0,0,1,7.879,6.389,2.634,2.634,0,0,0,.129.4Zm0,20.972a4.8,4.8,0,0,0-4.956-3.738q-34.418.014-68.836.02a3.924,3.924,0,0,0-1.616.364c-1.792.843-3.549,1.76-5.325,2.637a1.685,1.685,0,0,0-1.145,1.544A1.712,1.712,0,0,0,10.3,83.433c1.754.855,3.478,1.772,5.246,2.595a4.37,4.37,0,0,0,1.786.393q34.329.029,68.659.01a6.727,6.727,0,0,0,1.58-.153A4.743,4.743,0,0,0,91,82.684Zm-71.887-.746c18.98.067,37.959.041,56.939.041h1.214v3.028H76.143c-19.1,0-38.2-.026-57.294.042a10.309,10.309,0,0,1-4.762-1.528,9.471,9.471,0,0,1,5.026-1.583m61.3.074c2.1,0,4.155-.042,6.209.021a1.449,1.449,0,0,1,1.332,1.514,1.494,1.494,0,0,1-1.511,1.442c-1.977.031-3.956.01-6.03.01ZM34.445,21.224c1.6,0,3.2.016,4.8-.008a1.482,1.482,0,0,0,1.683-1.627q.052-2.887,0-5.776a1.5,1.5,0,0,0-1.654-1.672q-7.42-.031-14.84,0a1.521,1.521,0,0,0-1.673,1.665q-.04,2.888,0,5.776a1.507,1.507,0,0,0,1.687,1.633c1.629.025,3.258.006,4.887.011.313,0,.625.027.954.042v2.988H29.275c-3.021,0-6.043-.008-9.064,0-1.448.005-1.987.547-2.018,1.974-.01.444,0,.888,0,1.333,0,.9,0,1.809,0,2.766-1.515,0-2.877-.023-4.236.007-1.243.027-1.8.572-1.823,1.8q-.044,2.754,0,5.509c.02,1.211.6,1.756,1.833,1.8.651.022,1.3,0,1.955,0,3.14,0,6.28.008,9.42,0,1.263,0,1.909-.48,1.943-1.576.061-1.982.055-3.969,0-5.952a1.491,1.491,0,0,0-1.579-1.568c-.442-.037-.888-.016-1.332-.017-1.022,0-2.044,0-3.078,0V27.356H40.887v2.975c-1.375,0-2.7-.013-4.022,0-1.443.017-1.98.556-1.99,2-.012,1.6,0,3.2,0,4.8,0,1.865.45,2.317,2.3,2.32,1.232,0,2.465,0,3.709,0v4.524c-1.352,0-2.649-.007-3.945,0-1.5.01-2.054.55-2.064,2.022q-.017,2.533,0,5.065c.009,1.464.526,2.01,1.963,2.015q5.643.02,11.286,0c1.394-.005,1.919-.545,1.934-1.95.018-1.688.012-3.377,0-5.065-.009-1.553-.538-2.078-2.086-2.087-1.3-.007-2.594,0-3.915,0V39.449c1.378,0,2.679.009,3.979,0,1.45-.014,1.986-.543,2.022-1.971.008-.317,0-.635,0-1.007H62.126v2.981c-1.427,0-2.785-.013-4.143,0-1.319.016-1.837.525-1.848,1.827-.015,1.777-.012,3.555,0,5.332.009,1.391.545,1.929,1.945,1.932q5.6.013,11.2,0c1.462,0,2-.535,2-1.974q.01-2.577,0-5.154c-.005-1.46-.506-1.956-1.987-1.966-1.325-.009-2.65,0-3.929,0-.07-.151-.114-.2-.114-.255q-.016-1.821-.022-3.642c-.006-1.694-.472-2.174-2.156-2.177q-5.954-.008-11.908,0H50.055c0-.552.025-.964,0-1.371a1.573,1.573,0,0,0-1.687-1.66c-.472-.03-.948-.01-1.422-.011H43.98c0-1.422.006-2.692,0-3.961-.01-1.615-.507-2.108-2.136-2.112-2.488-.006-4.976,0-7.465,0h-.941V21.224h1.009m3.433-3.106H25.846v-2.9H37.878ZM15.16,36.354c0-.873-.027-1.692.022-2.506a.665.665,0,0,1,.468-.449c2.828-.028,5.656-.02,8.553-.02v2.975Zm31.821-.025H37.91c0-.85-.027-1.669.022-2.484a.664.664,0,0,1,.47-.446c2.828-.028,5.656-.02,8.58-.02ZM37.959,47.065h9v2.9h-9Zm30.246-1.6H59.243V42.545h8.962Zm8.484,15.188c1.733,0,2.191-.465,2.191-2.23q0-25.058,0-50.115c0-1.767-.46-2.235-2.19-2.235H8.27c-1.746,0-2.212.465-2.212,2.211q0,25.1,0,50.2c0,1.689.477,2.166,2.163,2.166h53.9V57.586H9.133V9.157H75.777V57.674H71.3v2.984c1.85,0,3.62,0,5.391,0m8.186-34.809H81.956v15.02h2.919Zm-19.6,27.173h2.94v-2.9h-2.94Zm2.914,3.129h-2.9v2.868h2.9ZM28.322,72.739h2.867V69.794H28.322Zm17.842-.018h2.828V69.809H46.164Zm-35.616,0h2.873V69.81H10.548Zm8.766-2.887H16.473v2.912h2.841ZM34.3,72.73h2.791V69.8H34.3Zm8.724-2.921H40.211v2.943h2.816Zm23.906-1.233-2.572-1.621L62.714,68.7l1.778,2.48,2.441-2.6M3.97,75.5,1.433,73.821.083,77.108l3,.594L3.97,75.5m-.032-4.21,1.723,2.519,2.182-.956L7.2,69.883l-3.263,1.4m54.05-1.49v3.041l3.236-.223-.684-2.942-2.552.124m10.287-7.689H65.222v2.628l2.913.491c.048-1.072.094-2.1.14-3.119M.058,80.439c-.229,2.6.471,3.277,2.932,2.864V80.439ZM25.225,69.816H22.41V72.73h2.815Zm26.838,2.9h2.822V69.8H52.063Z" transform="matrix(0.985, 0.174, -0.174, 0.985, 15.009, 0)"/></svg>