<svg xmlns="http://www.w3.org/2000/svg" width="107.861" height="119.409" viewBox="0 0 107.861 119.409"><defs><style>.a{fill:#fff;}</style></defs><path class="a" d="M42.987,105.21c-.879-.2-1.762-.392-2.636-.617-1.056-.271-2.115-.541-3.154-.872a1.786,1.786,0,0,1-1.429-2.225c.279-1.034,1.188-1.439,2.451-1.2,2.372.452,4.739.974,7.134,1.244a21.192,21.192,0,0,0,7.989-.9c.493-.135.979-.3,1.48-.4a1.733,1.733,0,0,1,2.1,1.159,1.666,1.666,0,0,1-1.177,2.185c-1.969.54-3.977.94-5.968,1.4a5.779,5.779,0,0,0-.627.222H42.987Zm1.028,0h0Zm2.877,0h0ZM33.924,69.934A17.38,17.38,0,0,0,49.3,74.648a17.885,17.885,0,0,0,14.75-20.314c-.636-4.109-1.577-8.171-2.413-12.248Q57.964,24.189,54.277,6.3c-.544-2.664-1.643-4.957-4.4-5.811A16.279,16.279,0,0,0,45.339,0a6.461,6.461,0,0,0-6.677,5.238c-.8,3.525-1.51,7.073-2.239,10.615q-3.248,15.789-6.476,31.582c-.646,3.168-1.227,6.35-1.555,8.056-.029,6.376,1.9,11.043,5.53,14.442M43.99,68.667a1.764,1.764,0,1,1,1.272-3.286c4.427,1.834,7.547-.731,9.508-4.063.293-.5.481-1.061.782-1.554a1.755,1.755,0,0,1,3.172,1.357A12.126,12.126,0,0,1,47.4,69.629c-.8-.22-2.133-.509-3.408-.962M55.305,50a1.613,1.613,0,0,1,1.61-1.743,1.63,1.63,0,0,1,1.866,1.613,30.436,30.436,0,0,1,0,3.791,1.706,1.706,0,0,1-1.887,1.609A1.652,1.652,0,0,1,55.3,53.485c-.023-.58,0-1.162,0-1.743s-.02-1.163.005-1.743m8.871,44.215A58.261,58.261,0,0,0,79.234,83.82c1.354-1.257,2.648-2.581,3.926-3.916a1.786,1.786,0,1,0-2.515-2.525c-.383.34-.724.728-1.081,1.1A58.541,58.541,0,0,1,64.032,90.29a36.533,36.533,0,0,1-25.988,3.186,50.451,50.451,0,0,1-21.27-11.506C15.153,80.552,13.65,79,12.1,77.5a1.9,1.9,0,0,0-2.653-.29,1.811,1.811,0,0,0-.008,2.656,12.171,12.171,0,0,0,.819.92A61.206,61.206,0,0,0,27.727,93.575,44.9,44.9,0,0,0,46.61,98.159a41.672,41.672,0,0,0,17.566-3.946M49.893,87.281c7.941-1.041,13.981-5.377,19.139-11.173a1.732,1.732,0,0,0-1.223-2.8,2.721,2.721,0,0,0-1.656.792c-1.886,1.631-3.6,3.484-5.586,4.973-7.5,5.613-15.537,6.246-23.946,2.222a37.037,37.037,0,0,1-10-7.1,2.991,2.991,0,0,0-1.826-.9,2.14,2.14,0,0,0-1.457,1.051,1.535,1.535,0,0,0,.425,1.957c2.07,1.784,4.041,3.713,6.263,5.286,5.4,3.825,11.375,6.061,18.118,5.709a13.513,13.513,0,0,0,1.743-.01M.011,84.058a3.128,3.128,0,0,0,.751,1.728,85.912,85.912,0,0,0,6.451,6.287,61.935,61.935,0,0,0,16.955,9.47,1.752,1.752,0,0,0,2.34-.866,1.787,1.787,0,0,0-.956-2.4c-.182-.094-.377-.162-.566-.242-8.384-3.509-16.213-7.821-22-15.113a2.67,2.67,0,0,0-.954-.573c-1.325-.027-2.135.687-2.017,1.7M66.9,101.493a66.14,66.14,0,0,0,16.045-8.17,93.4,93.4,0,0,0,7.325-6.095,1.689,1.689,0,0,0,.172-2.552,1.742,1.742,0,0,0-2.634.038c-.606.554-1.16,1.166-1.775,1.709A63.336,63.336,0,0,1,66.559,97.809a8.636,8.636,0,0,0-1.5.648,1.61,1.61,0,0,0-.8,1.929,1.824,1.824,0,0,0,1.859,1.338c.2-.057.494-.128.78-.231M13.207,21.367c-.6-.021-.881.127-.83.789a13.538,13.538,0,0,1,0,2.048c-.049.658.235.813.834.8.883-.018,1.767.045,2.651.074q.105-1.867.211-3.735c-.956.012-1.913.056-2.867.023m7.148,3.627c2.91-.031,2.9-.029,2.754-2.93-.026-.529-.183-.708-.711-.694-.949.025-1.9-.014-2.849-.026q0,1.86,0,3.72c.268-.024.537-.067.805-.069m50.988,7.055V28.538l.017.019c-.34,0-.68-.013-1.02-.014-2.778,0-2.778,0-2.619,2.841,0,.034-.014.082,0,.1.191.2.38.571.583.579,1.016.041,2.036-.013,3.055-.033l-.02.019m3.51-3.511q0,1.755,0,3.511l-.019-.019c.3.021.608.057.913.06,2.871.022,2.858.021,2.741-2.849-.021-.516-.146-.729-.693-.707-.985.04-1.972.019-2.959.024Zm0,3.511H71.342l.02-.019c-.012.341-.032.683-.033,1.024-.007,2.795-.007,2.78,2.847,2.658.534-.023.723-.176.7-.709-.041-.99-.031-1.982-.043-2.973ZM8.861,51.764h3.51l-.018.019c.223-3.746.223-3.746-2.76-3.623a.626.626,0,0,1-.1,0c-.49-.057-.665.157-.648.647.036.991.027,1.984.037,2.976Zm0,3.511q0-1.755,0-3.511l.018.018c-.305-.008-.61-.024-.915-.024C5.1,51.75,5.108,51.75,5.236,54.594c.023.512.149.734.694.709.982-.044,1.966-.034,2.949-.047Zm3.51-3.511q0,1.756,0,3.511l-.019-.019c.306.013.611.036.917.037,2.882.013,2.867.013,2.745-2.841-.023-.523-.162-.726-.7-.7-.985.04-1.973.026-2.96.034Zm0,3.511H8.861l.019-.019c-.01.34-.028.68-.029,1.02-.006,2.781-.005,2.767,2.842,2.641.521-.023.731-.161.707-.7-.043-.985-.034-1.973-.047-2.959ZM83.88,60.618q0-1.756,0-3.511l.019.019c-.339-.007-.679-.02-1.018-.021-2.853,0-2.866,0-2.637,2.887a.9.9,0,0,0,.6.625c1.015.052,2.035,0,3.053-.019Zm3.511,0H83.88L83.9,60.6c-.023.305-.065.61-.068.916-.027,2.891-.026,2.876,2.854,2.76.529-.021.723-.164.7-.7-.037-.989-.015-1.981-.018-2.972ZM19.555,20.544c0-2.83,0-2.83-2.847-2.7-.034,0-.081-.014-.1,0-.205.185-.571.367-.579.564-.043.983.009,1.969.027,2.954h3.51c0-.272-.011-.545-.011-.817m-.631,7.971a.883.883,0,0,0,.6-.606c.071-.95.036-1.908.04-2.863-.989-.019-1.98-.071-2.967-.028a.822.822,0,0,0-.571.564c-.042.987.012,1.977.032,2.966.955,0,1.913.036,2.863-.033m52.42.023h3.509l-.017.019c.184-3.726.184-3.726-2.816-3.568-.034,0-.083-.014-.1,0-.2.193-.552.383-.563.589-.05.989-.006,1.983,0,2.976ZM83.881,57.107h3.51l-.018.017c0-.985.036-1.971-.019-2.953a.829.829,0,0,0-.526-.6c-3.013-.358-3.016-.347-2.994,2.642,0,.3.043.606.066.909Zm3.51,0v3.509l-.019-.017c.272.016.544.045.816.047,2.877.019,2.863.019,2.751-2.848-.02-.524-.152-.726-.7-.7-.955.043-1.913.023-2.87.029Z" transform="matrix(0.985, 0.174, -0.174, 0.985, 18.27, 0)"/></svg>