<svg xmlns="http://www.w3.org/2000/svg" width="92.89" height="94.846" viewBox="0 0 92.89 94.846">
  <g id="weather" transform="translate(-16 46.219)">
    <g id="组_3689" data-name="组 3689" transform="translate(22.797 -17.977)">
      <path id="路径_25795" data-name="路径 25795" d="M117.17,167.573H72.995a16.955,16.955,0,0,1-3.3-33.593,27.057,27.057,0,0,1,49.967,6.638,13.593,13.593,0,0,1-2.495,26.956ZM93.383,126.8a20.458,20.458,0,0,0-18.395,11.752,3.4,3.4,0,0,1-2.8,1.939,10.091,10.091,0,0,0-9.385,10.1,10.206,10.206,0,0,0,10.194,10.194H117.17a6.8,6.8,0,1,0,0-13.592h-.343a3.4,3.4,0,0,1-3.363-2.913A20.437,20.437,0,0,0,93.383,126.8Z" transform="translate(-56.004 -119.999)" fill="#fff"/>
    </g>
    <g id="组_3690" data-name="组 3690" transform="translate(16 35.033)">
      <path id="路径_25796" data-name="路径 25796" d="M17.879,445.227a3.4,3.4,0,0,1-1.52-4.559l3.4-6.8a3.4,3.4,0,1,1,6.079,3.039l-3.4,6.8A3.4,3.4,0,0,1,17.879,445.227Z" transform="translate(-16 -431.993)" fill="#fff"/>
    </g>
    <g id="组_3691" data-name="组 3691" transform="translate(36.389 35.033)">
      <path id="路径_25797" data-name="路径 25797" d="M137.878,445.227a3.4,3.4,0,0,1-1.52-4.559l3.4-6.8a3.4,3.4,0,0,1,6.079,3.039l-3.4,6.8A3.4,3.4,0,0,1,137.878,445.227Z" transform="translate(-135.999 -431.993)" fill="#fff"/>
    </g>
    <g id="组_3692" data-name="组 3692" transform="translate(56.778 35.033)">
      <path id="路径_25798" data-name="路径 25798" d="M257.877,445.226a3.4,3.4,0,0,1-1.52-4.559l3.4-6.8a3.4,3.4,0,0,1,6.079,3.039l-3.4,6.8A3.4,3.4,0,0,1,257.877,445.226Z" transform="translate(-255.998 -431.992)" fill="#fff"/>
    </g>
    <g id="组_3693" data-name="组 3693" transform="translate(77.166 35.033)">
      <path id="路径_25799" data-name="路径 25799" d="M377.875,445.227a3.4,3.4,0,0,1-1.52-4.559l3.4-6.8a3.4,3.4,0,0,1,6.079,3.039l-3.4,6.8A3.4,3.4,0,0,1,377.875,445.227Z" transform="translate(-375.996 -431.992)" fill="#fff"/>
    </g>
    <path id="路径_25800" data-name="路径 25800" d="M249.334-12.237h-9.079a23.669,23.669,0,0,0-4.5-10.84l7.388-7.387a3.4,3.4,0,0,0,0-4.806,3.4,3.4,0,0,0-4.806,0l-7.388,7.387a23.669,23.669,0,0,0-10.84-4.5V-42.821a3.4,3.4,0,0,0-3.4-3.4,3.4,3.4,0,0,0-3.4,3.4V-32.38A23.8,23.8,0,0,0,205.83-30a23.733,23.733,0,0,0-3.36,2.108l-7.383-7.383a3.4,3.4,0,0,0-4.806,0,3.4,3.4,0,0,0,0,4.806l7.381,7.381c-.025.034-.052.067-.078.1a3.4,3.4,0,0,0,.709,4.753,3.4,3.4,0,0,0,4.753-.709,16.861,16.861,0,0,1,13.666-6.892A17.01,17.01,0,0,1,233.7-8.839a16.874,16.874,0,0,1-1.392,6.748,3.4,3.4,0,0,0,1.767,4.469A3.4,3.4,0,0,0,238.547.61a23.564,23.564,0,0,0,1.71-6.052h9.077a3.4,3.4,0,0,0,3.4-3.4A3.4,3.4,0,0,0,249.334-12.237Z" transform="translate(-143.843)" fill="#fff"/>
  </g>
</svg>
